<svg xmlns="http://www.w3.org/2000/svg" width="24" height="24" viewBox="0 0 24 24">
  <metadata><?xpacket begin="﻿" id="W5M0MpCehiHzreSzNTczkc9d"?>
<x:xmpmeta xmlns:x="adobe:ns:meta/" x:xmptk="Adobe XMP Core 5.6-c138 79.159824, 2016/09/14-01:09:01        ">
   <rdf:RDF xmlns:rdf="http://www.w3.org/1999/02/22-rdf-syntax-ns#">
      <rdf:Description rdf:about=""/>
   </rdf:RDF>
</x:xmpmeta>
                                                                                                    
                                                                                                    
                                                                                                    
                                                                                                    
                                                                                                    
                                                                                                    
                                                                                                    
                                                                                                    
                                                                                                    
                                                                                                    
                                                                                                    
                                                                                                    
                                                                                                    
                                                                                                    
                                                                                                    
                                                                                                    
                                                                                                    
                                                                                                    
                                                                                                    
                                                                                                    
                           
<?xpacket end="w"?></metadata>
<defs>
    <style>
      .cls-1 {
        fill: #333;
        fill-opacity: 0.3;
        fill-rule: evenodd;
      }
    </style>
  </defs>
  <path id="icon" class="cls-1" d="M378.311,5302.55a11.23,11.23,0,0,0,.264-2.42,11.366,11.366,0,0,0-11.447-11.29,12.594,12.594,0,0,0-1.957.16,6.72,6.72,0,0,0-3.532-1,6.593,6.593,0,0,0-6.639,6.55,6.5,6.5,0,0,0,.912,3.31,11.116,11.116,0,0,0,11.215,13.37,12.02,12.02,0,0,0,2.095-.19,6.916,6.916,0,0,0,3.139.96,6.593,6.593,0,0,0,6.639-6.55A6.41,6.41,0,0,0,378.311,5302.55Zm-5.962,2.18a4.366,4.366,0,0,1-1.94,1.48,7.738,7.738,0,0,1-3.026.53,7.254,7.254,0,0,1-3.462-.73,4.419,4.419,0,0,1-1.571-1.4,3,3,0,0,1-.6-1.7,1.076,1.076,0,0,1,.362-0.82,1.29,1.29,0,0,1,.923-0.35,1.139,1.139,0,0,1,.769.27,2.072,2.072,0,0,1,.536.79,5,5,0,0,0,.586,1.04,2.3,2.3,0,0,0,.883.69,3.537,3.537,0,0,0,1.5.27,3.634,3.634,0,0,0,2.074-.54,1.624,1.624,0,0,0,.8-1.37,1.379,1.379,0,0,0-.43-1.05,2.807,2.807,0,0,0-1.113-.62q-0.68-.21-1.823-0.45a14.494,14.494,0,0,1-2.556-.77,4.226,4.226,0,0,1-1.635-1.2,2.953,2.953,0,0,1-.6-1.89,3.086,3.086,0,0,1,.638-1.92,4.051,4.051,0,0,1,1.847-1.28,8.134,8.134,0,0,1,2.842-.45,7.554,7.554,0,0,1,2.258.3,4.91,4.91,0,0,1,1.58.79,3.387,3.387,0,0,1,.919,1.03,2.255,2.255,0,0,1,.29,1.06,1.184,1.184,0,0,1-.362.85,1.209,1.209,0,0,1-.9.38,1.106,1.106,0,0,1-.75-0.23,3.073,3.073,0,0,1-.555-0.74,3.464,3.464,0,0,0-.928-1.15,2.865,2.865,0,0,0-1.74-.41,3.21,3.21,0,0,0-1.794.44,1.293,1.293,0,0,0-.682,1.09,1.032,1.032,0,0,0,.232.67,1.953,1.953,0,0,0,.639.49,4.438,4.438,0,0,0,.821.32c0.277,0.08.735,0.19,1.374,0.34a21.819,21.819,0,0,1,2.17.57,7.23,7.23,0,0,1,1.654.75,3.275,3.275,0,0,1,1.063,1.13,3.354,3.354,0,0,1,.383,1.67A3.6,3.6,0,0,1,372.349,5304.73Z" transform="translate(-355 -5288)"/>
</svg>
