<svg xmlns="http://www.w3.org/2000/svg" width="26" height="20" viewBox="0 0 26 20">
  <metadata><?xpacket begin="﻿" id="W5M0MpCehiHzreSzNTczkc9d"?>
<x:xmpmeta xmlns:x="adobe:ns:meta/" x:xmptk="Adobe XMP Core 5.6-c138 79.159824, 2016/09/14-01:09:01        ">
   <rdf:RDF xmlns:rdf="http://www.w3.org/1999/02/22-rdf-syntax-ns#">
      <rdf:Description rdf:about=""/>
   </rdf:RDF>
</x:xmpmeta>
                                                                                                    
                                                                                                    
                                                                                                    
                                                                                                    
                                                                                                    
                                                                                                    
                                                                                                    
                                                                                                    
                                                                                                    
                                                                                                    
                                                                                                    
                                                                                                    
                                                                                                    
                                                                                                    
                                                                                                    
                                                                                                    
                                                                                                    
                                                                                                    
                                                                                                    
                                                                                                    
                           
<?xpacket end="w"?></metadata>
<defs>
    <style>
      .cls-1 {
        fill: #206cff;
        fill-rule: evenodd;
      }
    </style>
  </defs>
  <path id="icon" class="cls-1" d="M460.524,4703.97l-0.418-2.04c4.041-.76,6.151-3.3,5.825-7.08l-0.079-.91h-3.729V4686H470.1v7.38c0,6.94-2.961,10.24-9.574,10.59m-0.8,1.03c7.307-.13,11.363-3.42,11.363-11.62V4685h-9.953v9.94h3.811c0.306,3.54-1.78,5.71-6.021,6.15l0.8,3.91h0Zm14.646-1.03-0.419-2.04c4.042-.76,6.152-3.3,5.826-7.08l-0.079-.91h-3.729V4686h7.975v7.38c0,6.94-2.961,10.24-9.574,10.59m-0.8,1.03c7.307-.13,11.363-3.42,11.363-11.62V4685H474.98v9.94h3.811c0.305,3.54-1.78,5.71-6.021,6.15l0.8,3.91h0Z" transform="translate(-458.938 -4685)"/>
</svg>
