<svg xmlns="http://www.w3.org/2000/svg" width="62" height="65" viewBox="0 0 62 65">
  <metadata><?xpacket begin="﻿" id="W5M0MpCehiHzreSzNTczkc9d"?>
<x:xmpmeta xmlns:x="adobe:ns:meta/" x:xmptk="Adobe XMP Core 5.6-c138 79.159824, 2016/09/14-01:09:01        ">
   <rdf:RDF xmlns:rdf="http://www.w3.org/1999/02/22-rdf-syntax-ns#">
      <rdf:Description rdf:about=""/>
   </rdf:RDF>
</x:xmpmeta>
                                                                                                    
                                                                                                    
                                                                                                    
                                                                                                    
                                                                                                    
                                                                                                    
                                                                                                    
                                                                                                    
                                                                                                    
                                                                                                    
                                                                                                    
                                                                                                    
                                                                                                    
                                                                                                    
                                                                                                    
                                                                                                    
                                                                                                    
                                                                                                    
                                                                                                    
                                                                                                    
                           
<?xpacket end="w"?></metadata>
<defs>
    <style>
      .cls-1 {
        fill: #206cff;
        fill-rule: evenodd;
      }
    </style>
  </defs>
  <path id="_1" data-name="1" class="cls-1" d="M359.153,3795.21L340,3789l-19.157,6.21L309,3811.46v20.08l11.84,16.25L340,3854l19.157-6.21,11.84-16.25v-20.08Zm10.527,16.15-10.129,3.28L340.5,3800.83v-10.62l18.036,5.85Zm-18.017,26.15H328.329l-7.211-22.13L340,3801.71l18.878,13.67Zm-30.2-41.45,18.036-5.85v10.62l-19.054,13.81-10.128-3.28ZM310,3812.31l10.129,3.28,7.278,22.34-6.261,8.59L310,3831.22v-18.91Zm11.957,34.79,6.26-8.59h23.554l6.259,8.59L340,3852.95Zm36.884-.58-6.26-8.6,7.278-22.33,10.129-3.28v18.91Zm-19.2-34.48H339.5l-0.14.04-4.838,1.44-0.922.28,0.237,0.93,0.77,3.02,0.245,0.96,0.967-.23,1.694-.42v12.9h5.664v-18.92h-3.53Zm2.527,17.92h-3.658v-13.18l-2.937.72-0.77-3.02,4.838-1.44h2.527v16.92Z" transform="translate(-309 -3789)"/>
</svg>
