<svg xmlns="http://www.w3.org/2000/svg" width="62" height="65" viewBox="0 0 62 65">
  <metadata><?xpacket begin="﻿" id="W5M0MpCehiHzreSzNTczkc9d"?>
<x:xmpmeta xmlns:x="adobe:ns:meta/" x:xmptk="Adobe XMP Core 5.6-c138 79.159824, 2016/09/14-01:09:01        ">
   <rdf:RDF xmlns:rdf="http://www.w3.org/1999/02/22-rdf-syntax-ns#">
      <rdf:Description rdf:about=""/>
   </rdf:RDF>
</x:xmpmeta>
                                                                                                    
                                                                                                    
                                                                                                    
                                                                                                    
                                                                                                    
                                                                                                    
                                                                                                    
                                                                                                    
                                                                                                    
                                                                                                    
                                                                                                    
                                                                                                    
                                                                                                    
                                                                                                    
                                                                                                    
                                                                                                    
                                                                                                    
                                                                                                    
                                                                                                    
                                                                                                    
                           
<?xpacket end="w"?></metadata>
<defs>
    <style>
      .cls-1 {
        fill: #206cff;
        fill-rule: evenodd;
      }
    </style>
  </defs>
  <path id="_3" data-name="3" class="cls-1" d="M1103.76,3819.3l2.98-2.84,0.31-.29v-4.21h-13.39v5.16h5.21l-2.32,2.33-0.4.4,0.14,0.54,0.58,2.36,0.18,0.76h2.33c0.86,0,2.29.15,2.29,1.13a1.174,1.174,0,0,1-1.37,1.09,4.12,4.12,0,0,1-3.32-1.68l-0.69-.77-0.75.71-2.56,2.43-0.68.65,0.61,0.72a9.18,9.18,0,0,0,7.34,3.26c4.16,0,7.07-2.68,7.07-6.5A5.283,5.283,0,0,0,1103.76,3819.3Zm-3.51,10.74a8.176,8.176,0,0,1-6.57-2.9l2.55-2.42a5.153,5.153,0,0,0,4.07,2.01,2.118,2.118,0,0,0,2.38-2.09c0-1.36-1.23-2.13-3.3-2.13h-1.54l-0.58-2.35,4.02-4.04h-6.62v-3.16h11.39v2.78l-4.26,4.06c2.28,0.38,4.52,1.58,4.52,4.75S1104,3830.04,1100.25,3830.04Zm18.9-34.83-19.16-6.21-19.15,6.21L1069,3811.46v20.08l11.84,16.25,19.15,6.21,19.16-6.21,11.84-16.25v-20.08Zm10.53,16.15-9.65,3.12-0.8-17.46Zm-40.8,27.15h22.23l-11.12,13.89Zm-7.1-42.01,17.18,4.72-17.98,13.03Zm37.23,17.75-17.98-13.03,17.18-4.72Zm-7.35,23.26h-23.33l-7.21-22.13,18.87-13.67,18.88,13.67Zm-24.46-.21-16.67-6.25,9.8-14.83Zm32.45-21.08,9.81,14.83-16.67,6.25Zm-19.15-15.89v-10.12l16.9,5.48Zm-1.01-10.12v10.12l-16.9-4.64Zm-19.53,24.27-9.65-3.12,10.45-14.34Zm-9.96-2.17,9.65,3.12-9.65,14.6v-17.72Zm17.11,26.02-5.96,8.19-10.45-14.34Zm-5.15,8.77,5.96-8.18,10.94,13.66Zm30.11-8.18,5.96,8.18-16.9,5.48Zm6.77,7.6-5.96-8.19,16.41-6.15Zm1.5-31.09,9.65-3.12v17.72Z" transform="translate(-1069 -3789)"/>
</svg>
