<svg xmlns="http://www.w3.org/2000/svg" width="62" height="65" viewBox="0 0 62 65">
  <metadata><?xpacket begin="﻿" id="W5M0MpCehiHzreSzNTczkc9d"?>
<x:xmpmeta xmlns:x="adobe:ns:meta/" x:xmptk="Adobe XMP Core 5.6-c138 79.159824, 2016/09/14-01:09:01        ">
   <rdf:RDF xmlns:rdf="http://www.w3.org/1999/02/22-rdf-syntax-ns#">
      <rdf:Description rdf:about=""/>
   </rdf:RDF>
</x:xmpmeta>
                                                                                                    
                                                                                                    
                                                                                                    
                                                                                                    
                                                                                                    
                                                                                                    
                                                                                                    
                                                                                                    
                                                                                                    
                                                                                                    
                                                                                                    
                                                                                                    
                                                                                                    
                                                                                                    
                                                                                                    
                                                                                                    
                                                                                                    
                                                                                                    
                                                                                                    
                                                                                                    
                           
<?xpacket end="w"?></metadata>
<defs>
    <style>
      .cls-1 {
        fill: #206cff;
        fill-rule: evenodd;
      }
    </style>
  </defs>
  <path id="_2" data-name="2" class="cls-1" d="M739.151,3795.21L719.994,3789l-19.157,6.21L689,3811.46v20.08l11.84,16.25,19.157,6.21,19.157-6.21,11.84-16.25v-20.08Zm-7.49,42.3H708.327l-7.211-22.13,18.878-13.67,18.878,13.67ZM720.5,3800.83v-10.62l17.535,5.68-8.414,11.55Zm-1,0-9.122,6.61-8.413-11.55,17.535-5.68v10.62Zm-9.933,7.2-9.121,6.61-10.129-3.28,10.837-14.88Zm-9.431,7.56,3.484,10.69L690,3830.69v-18.38Zm3.794,11.64,3.484,10.7-6.26,8.59-10.837-14.88Zm4.295,11.28h11.275v14.28l-17.535-5.69Zm12.278,0h11.275l6.259,8.59-17.534,5.69v-14.28Zm12.086-.59,3.483-10.69,13.614,4.41-10.838,14.88Zm3.793-11.64,3.484-10.69,10.13-3.28v18.38Zm13.3-14.92-10.129,3.28-9.122-6.61,8.414-11.55Zm-27.853,14.47,0.418-.32c3-2.32,4.818-3.96,4.818-7.3,0-3.73-2.734-6.23-6.8-6.23-3.509,0-5.373,1.55-7.091,3.89l-0.567.77,0.747,0.6,2.6,2.09,0.778,0.62,0.63-.77c1.3-1.6,1.916-1.89,2.663-1.89a1.074,1.074,0,0,1,1.26,1.19c0,0.92-.524,1.59-2.549,3.26l-5.605,4.58-0.367.3v4.4h14.474v-5.19h-5.4Zm4.4,4.19H713.76v-2.93l5.608-4.58c2.095-1.73,2.912-2.64,2.912-4.03a2.066,2.066,0,0,0-2.262-2.19c-1.3,0-2.19.72-3.442,2.26l-2.6-2.09c1.661-2.26,3.273-3.48,6.282-3.48,3.489,0,5.8,2.04,5.8,5.23,0,2.81-1.445,4.2-4.429,6.51l-2.744,2.11h7.341v3.19Z" transform="translate(-689 -3789)"/>
</svg>
