<svg xmlns="http://www.w3.org/2000/svg" width="65" height="65" viewBox="0 0 65 65">
  <metadata><?xpacket begin="﻿" id="W5M0MpCehiHzreSzNTczkc9d"?>
<x:xmpmeta xmlns:x="adobe:ns:meta/" x:xmptk="Adobe XMP Core 5.6-c138 79.159824, 2016/09/14-01:09:01        ">
   <rdf:RDF xmlns:rdf="http://www.w3.org/1999/02/22-rdf-syntax-ns#">
      <rdf:Description rdf:about=""/>
   </rdf:RDF>
</x:xmpmeta>
                                                                                                    
                                                                                                    
                                                                                                    
                                                                                                    
                                                                                                    
                                                                                                    
                                                                                                    
                                                                                                    
                                                                                                    
                                                                                                    
                                                                                                    
                                                                                                    
                                                                                                    
                                                                                                    
                                                                                                    
                                                                                                    
                                                                                                    
                                                                                                    
                                                                                                    
                                                                                                    
                           
<?xpacket end="w"?></metadata>
<defs>
    <style>
      .cls-1 {
        fill: #fff;
        fill-rule: evenodd;
      }
    </style>
  </defs>
  <path id="icon6" class="cls-1" d="M796.415,3297.67a10,10,0,1,0-14.083-14.08,32.494,32.494,0,0,0-42.976,45.16h0a32.492,32.492,0,0,0,56.282,0h0A32.478,32.478,0,0,0,796.415,3297.67ZM790,3281a8.986,8.986,0,0,1,5.93,15.75,32.623,32.623,0,0,0-12.683-12.68A8.965,8.965,0,0,1,790,3281Zm5.128,16.39a8.992,8.992,0,0,1-12.514-12.52A31.7,31.7,0,0,1,795.128,3297.39ZM767,3312.21l-25.414,14.67L767,3282.87v29.34Zm0.5,0.87,25.415,14.67H742.086Zm0.5-.87v-29.34l25.414,44.01Zm-32,.29a31.54,31.54,0,0,1,30.914-31.49l-26.973,46.72A31.264,31.264,0,0,1,736,3312.5Zm31.5,31.5a31.514,31.514,0,0,1-26.974-15.25h53.948A31.514,31.514,0,0,1,767.5,3344Zm0.586-62.99a31.526,31.526,0,0,1,13.627,3.39,10,10,0,0,0,13.885,13.89,31.389,31.389,0,0,1-.539,29.44Z" transform="translate(-735 -3280)"/>
</svg>
