<svg xmlns="http://www.w3.org/2000/svg" width="62" height="65" viewBox="0 0 62 65">
  <metadata><?xpacket begin="﻿" id="W5M0MpCehiHzreSzNTczkc9d"?>
<x:xmpmeta xmlns:x="adobe:ns:meta/" x:xmptk="Adobe XMP Core 5.6-c138 79.159824, 2016/09/14-01:09:01        ">
   <rdf:RDF xmlns:rdf="http://www.w3.org/1999/02/22-rdf-syntax-ns#">
      <rdf:Description rdf:about=""/>
   </rdf:RDF>
</x:xmpmeta>
                                                                                                    
                                                                                                    
                                                                                                    
                                                                                                    
                                                                                                    
                                                                                                    
                                                                                                    
                                                                                                    
                                                                                                    
                                                                                                    
                                                                                                    
                                                                                                    
                                                                                                    
                                                                                                    
                                                                                                    
                                                                                                    
                                                                                                    
                                                                                                    
                                                                                                    
                                                                                                    
                           
<?xpacket end="w"?></metadata>
<defs>
    <style>
      .cls-1 {
        fill: #fff;
        fill-rule: evenodd;
      }
    </style>
  </defs>
  <path id="icon4" class="cls-1" d="M785.153,3121.21L766,3115l-19.157,6.21L735,3137.46v20.08l11.84,16.25L766,3180l19.157-6.21,11.84-16.25v-20.08Zm10.837,35.48-10.041-3.25L778.638,3131l6.206-8.52,11.146,15.3v18.91ZM766,3167.39l-18.966-13.75,7.244-22.23h23.444l7.244,22.23Zm18.037-45.49-6.207,8.51h-23.66l-6.206-8.51L766,3116.05Zm-36.884.58,6.205,8.52-7.311,22.44L736,3156.69v-18.91Zm-10.837,35.16,10.041-3.25,9.571,6.93,9.571,6.94v10.53l-18.036-5.85Zm48.222,15.3-18.037,5.85v-10.53l19.143-13.87,10.04,3.25Z" transform="translate(-735 -3115)"/>
</svg>
