<svg xmlns="http://www.w3.org/2000/svg" width="32.032" height="40" viewBox="0 0 32.032 40">
  <metadata><?xpacket begin="﻿" id="W5M0MpCehiHzreSzNTczkc9d"?>
<x:xmpmeta xmlns:x="adobe:ns:meta/" x:xmptk="Adobe XMP Core 5.6-c138 79.159824, 2016/09/14-01:09:01        ">
   <rdf:RDF xmlns:rdf="http://www.w3.org/1999/02/22-rdf-syntax-ns#">
      <rdf:Description rdf:about=""/>
   </rdf:RDF>
</x:xmpmeta>
                                                                                                    
                                                                                                    
                                                                                                    
                                                                                                    
                                                                                                    
                                                                                                    
                                                                                                    
                                                                                                    
                                                                                                    
                                                                                                    
                                                                                                    
                                                                                                    
                                                                                                    
                                                                                                    
                                                                                                    
                                                                                                    
                                                                                                    
                                                                                                    
                                                                                                    
                                                                                                    
                           
<?xpacket end="w"?></metadata>
<defs>
    <style>
      .cls-1 {
        fill: #206cff;
        fill-rule: evenodd;
      }
    </style>
  </defs>
  <path id="icon" class="cls-1" d="M222.936,1164.35l2.072-6.1-6.243-1.23-2.278-6.02-5.561,3.13-5.562-3.13-2.278,6.02-6.243,1.23,2.072,6.1-4,5.02,5.453,3.32,0.109,6.45,3.553-.57V1191l6.9-3,6.9,3v-12.43l3.552,0.57,0.11-6.45,5.452-3.32Zm-6.1,25.13-5.526-2.4-0.388-.17-0.389.17-5.525,2.4v-11.07l1.742-.28,4.172,4.87,4.171-4.87,1.743,0.28v11.07Zm4.14-17.65-0.468.29-0.01.55-0.09,5.3-5.161-.83-0.539-.08-0.359.41-3.427,4.01-3.427-4.01-0.359-.41-0.54.08-5.161.83-0.09-5.3-0.009-.55-0.469-.29-4.48-2.73,3.29-4.12,0.344-.43-0.178-.52-1.7-5.01,5.129-1.01,0.537-.11,0.2-.52,1.871-4.95,4.57,2.57,0.478,0.27,0.478-.27,4.569-2.57,1.872,4.95,0.2,0.52,0.536,0.11,5.13,1.01-1.7,5.01-0.179.52,0.345,0.43,3.289,4.12Zm-12.026-1.54-3.594-3.64-0.7.7,4.291,4.36,8.234-8.36-0.7-.7Z" transform="translate(-194.906 -1151)"/>
</svg>
