<svg xmlns="http://www.w3.org/2000/svg" width="40" height="34" viewBox="0 0 40 34">
  <metadata><?xpacket begin="﻿" id="W5M0MpCehiHzreSzNTczkc9d"?>
<x:xmpmeta xmlns:x="adobe:ns:meta/" x:xmptk="Adobe XMP Core 5.6-c138 79.159824, 2016/09/14-01:09:01        ">
   <rdf:RDF xmlns:rdf="http://www.w3.org/1999/02/22-rdf-syntax-ns#">
      <rdf:Description rdf:about=""/>
   </rdf:RDF>
</x:xmpmeta>
                                                                                                    
                                                                                                    
                                                                                                    
                                                                                                    
                                                                                                    
                                                                                                    
                                                                                                    
                                                                                                    
                                                                                                    
                                                                                                    
                                                                                                    
                                                                                                    
                                                                                                    
                                                                                                    
                                                                                                    
                                                                                                    
                                                                                                    
                                                                                                    
                                                                                                    
                                                                                                    
                           
<?xpacket end="w"?></metadata>
<defs>
    <style>
      .cls-1 {
        fill: #206cff;
        fill-rule: evenodd;
      }
    </style>
  </defs>
  <path id="icon" class="cls-1" d="M765,1154v34h40v-34H765Zm26,30H779v-26h12v26Zm1-26h12v26H792v-26Zm-14,26H766v-26h12v26Zm26,3H766v-2h38v2Zm-12-30H766v-2h38v2H792Zm-23,10h6v0.38l-4.171,8.34,0.9,0.45,4.276-8.55V1166h-8v2h1v-1Zm13,1v-1h6v0.38l-4.171,8.34,0.9,0.45,4.276-8.55V1166h-8v2h1Zm12,0h1v-1h6v0.38l-4.171,8.34,0.9,0.45,4.276-8.55V1166h-8v2Z" transform="translate(-765 -1154)"/>
</svg>
