<svg xmlns="http://www.w3.org/2000/svg" width="40" height="32" viewBox="0 0 40 32">
  <metadata><?xpacket begin="﻿" id="W5M0MpCehiHzreSzNTczkc9d"?>
<x:xmpmeta xmlns:x="adobe:ns:meta/" x:xmptk="Adobe XMP Core 5.6-c138 79.159824, 2016/09/14-01:09:01        ">
   <rdf:RDF xmlns:rdf="http://www.w3.org/1999/02/22-rdf-syntax-ns#">
      <rdf:Description rdf:about=""/>
   </rdf:RDF>
</x:xmpmeta>
                                                                                                    
                                                                                                    
                                                                                                    
                                                                                                    
                                                                                                    
                                                                                                    
                                                                                                    
                                                                                                    
                                                                                                    
                                                                                                    
                                                                                                    
                                                                                                    
                                                                                                    
                                                                                                    
                                                                                                    
                                                                                                    
                                                                                                    
                                                                                                    
                                                                                                    
                                                                                                    
                           
<?xpacket end="w"?></metadata>
<defs>
    <style>
      .cls-1 {
        fill: #206cff;
        fill-rule: evenodd;
      }
    </style>
  </defs>
  <path id="icon" class="cls-1" d="M1070,1158a6,6,0,1,0,6,6A6,6,0,0,0,1070,1158Zm0,11a5,5,0,1,1,5-5A5,5,0,0,1,1070,1169Zm12-14h-32v24h27v3.5c0,2.48,2.92,4.5,6.5,4.5s6.5-2.02,6.5-4.5V1155h-8Zm-4,20.89a8.223,8.223,0,0,0,11,0v0.61c0,1.93-2.47,3.5-5.5,3.5s-5.5-1.57-5.5-3.5v-0.61Zm5.5,1.11c-3.03,0-5.5-1.57-5.5-3.5s2.47-3.5,5.5-3.5,5.5,1.57,5.5,3.5S1086.53,1177,1083.5,1177Zm-25.5-21h24v13.13a6.188,6.188,0,0,0-4.62,2.87H1058v-16Zm-7,0h6v16h-6v-16Zm0,17h26.04a4.048,4.048,0,0,0-.04.5v0.5h-26v-1Zm0,2h26v1h-26v-1Zm0,3v-1h26v1h-26Zm38,4.5c0,1.93-2.47,3.5-5.5,3.5s-5.5-1.57-5.5-3.5v-0.61a8.223,8.223,0,0,0,11,0v0.61Zm-5.5.5c-3.03,0-5.5-1.57-5.5-3.5v-0.61a8.223,8.223,0,0,0,11,0v0.61C1089,1181.43,1086.53,1183,1083.5,1183Zm0-14c-0.17,0-.33.01-0.5,0.02V1156h6v15.11A7.5,7.5,0,0,0,1083.5,1169Z" transform="translate(-1050 -1155)"/>
</svg>
