<svg xmlns="http://www.w3.org/2000/svg" width="62" height="80" viewBox="0 0 62 80">
  <metadata><?xpacket begin="﻿" id="W5M0MpCehiHzreSzNTczkc9d"?>
<x:xmpmeta xmlns:x="adobe:ns:meta/" x:xmptk="Adobe XMP Core 5.6-c138 79.159824, 2016/09/14-01:09:01        ">
   <rdf:RDF xmlns:rdf="http://www.w3.org/1999/02/22-rdf-syntax-ns#">
      <rdf:Description rdf:about=""/>
   </rdf:RDF>
</x:xmpmeta>
                                                                                                    
                                                                                                    
                                                                                                    
                                                                                                    
                                                                                                    
                                                                                                    
                                                                                                    
                                                                                                    
                                                                                                    
                                                                                                    
                                                                                                    
                                                                                                    
                                                                                                    
                                                                                                    
                                                                                                    
                                                                                                    
                                                                                                    
                                                                                                    
                                                                                                    
                                                                                                    
                           
<?xpacket end="w"?></metadata>
<defs>
    <style>
      .cls-1 {
        fill: #206cff;
        fill-rule: evenodd;
      }
    </style>
  </defs>
  <path id="icon" class="cls-1" d="M1178,1608h-4v-32l-15-15h-43v80h58v-13h4v-20Zm-5.41-32H1159v-13.59Zm0.41,64h-56v-78h41v15h15v31h-48v20h48v12Zm4-13h-51v-18h51v18Zm-34.38-14h-3.5v10h1v-3h2.5A3.5,3.5,0,0,0,1142.62,1613Zm0,6h-2.5v-5h2.5A2.5,2.5,0,0,1,1142.62,1619Zm15.5,4h1v-4h4.01v-1h-4.01v-4h5v-1h-6v10Zm-7-10h-2.99v10h2.99A5,5,0,1,0,1151.12,1613Zm0,9h-1.99v-8h1.99A4,4,0,1,1,1151.12,1622Z" transform="translate(-1116 -1561)"/>
</svg>
