<svg xmlns="http://www.w3.org/2000/svg" width="34" height="40" viewBox="0 0 34 40">
  <metadata><?xpacket begin="﻿" id="W5M0MpCehiHzreSzNTczkc9d"?>
<x:xmpmeta xmlns:x="adobe:ns:meta/" x:xmptk="Adobe XMP Core 5.6-c138 79.159824, 2016/09/14-01:09:01        ">
   <rdf:RDF xmlns:rdf="http://www.w3.org/1999/02/22-rdf-syntax-ns#">
      <rdf:Description rdf:about=""/>
   </rdf:RDF>
</x:xmpmeta>
                                                                                                    
                                                                                                    
                                                                                                    
                                                                                                    
                                                                                                    
                                                                                                    
                                                                                                    
                                                                                                    
                                                                                                    
                                                                                                    
                                                                                                    
                                                                                                    
                                                                                                    
                                                                                                    
                                                                                                    
                                                                                                    
                                                                                                    
                                                                                                    
                                                                                                    
                                                                                                    
                           
<?xpacket end="w"?></metadata>
<defs>
    <style>
      .cls-1 {
        fill: #206cff;
        fill-rule: evenodd;
      }
    </style>
  </defs>
  <path id="icon" class="cls-1" d="M512,1538.05V1536a15,15,0,0,0-30,0v2.05a2.5,2.5,0,0,0-2,2.45v8a2.5,2.5,0,0,0,2.5,2.5H487v-13h-4v-2a14,14,0,0,1,28,0v2h-4v13h3v1.5a5.508,5.508,0,0,1-5.5,5.5H500a2,2,0,0,0-2-2h-2a2,2,0,0,0-2,2v1a2,2,0,0,0,2,2h2a2,2,0,0,0,2-2h4.5a6.51,6.51,0,0,0,6.5-6.5V1551h0.5a2.5,2.5,0,0,0,2.5-2.5v-8A2.5,2.5,0,0,0,512,1538.05ZM482.5,1550a1.5,1.5,0,0,1-1.5-1.5v-8a1.5,1.5,0,0,1,1.5-1.5H483v11h-0.5Zm3.5-11v11h-2v-11h2Zm12,21h-2a1,1,0,0,1-1-1v-1a1,1,0,0,1,1-1h2a1,1,0,0,1,1,1v1A1,1,0,0,1,498,1560Zm10-10v-11h2v11h-2Zm5-1.5a1.5,1.5,0,0,1-1.5,1.5H511v-11h0.5a1.5,1.5,0,0,1,1.5,1.5v8Z" transform="translate(-480 -1521)"/>
</svg>
