<svg xmlns="http://www.w3.org/2000/svg" width="40" height="34" viewBox="0 0 40 34">
  <metadata><?xpacket begin="﻿" id="W5M0MpCehiHzreSzNTczkc9d"?>
<x:xmpmeta xmlns:x="adobe:ns:meta/" x:xmptk="Adobe XMP Core 5.6-c138 79.159824, 2016/09/14-01:09:01        ">
   <rdf:RDF xmlns:rdf="http://www.w3.org/1999/02/22-rdf-syntax-ns#">
      <rdf:Description rdf:about=""/>
   </rdf:RDF>
</x:xmpmeta>
                                                                                                    
                                                                                                    
                                                                                                    
                                                                                                    
                                                                                                    
                                                                                                    
                                                                                                    
                                                                                                    
                                                                                                    
                                                                                                    
                                                                                                    
                                                                                                    
                                                                                                    
                                                                                                    
                                                                                                    
                                                                                                    
                                                                                                    
                                                                                                    
                                                                                                    
                                                                                                    
                           
<?xpacket end="w"?></metadata>
<defs>
    <style>
      .cls-1 {
        fill: #206cff;
        fill-rule: evenodd;
      }
    </style>
  </defs>
  <path id="icon" class="cls-1" d="M785,1524a19.991,19.991,0,0,0-14.271,34h28.542A19.991,19.991,0,0,0,785,1524Zm-3,33v-1a3,3,0,0,1,6,0v1h-6Zm7,0v-1a4,4,0,0,0-8,0v1h-3v-1a7,7,0,0,1,14,0v1h-3Zm9.845,0H793v-1a7.982,7.982,0,0,0-3.985-6.91l4.656-9.31-0.9-.45-4.652,9.3h0A8.113,8.113,0,0,0,785,1548a8,8,0,0,0-8,8v1h-5.845A19,19,0,1,1,798.845,1557ZM785,1526a2,2,0,1,0,2,2A2,2,0,0,0,785,1526Zm0,3a1,1,0,1,1,1-1A1,1,0,0,1,785,1529Zm-16,13a2,2,0,1,0,2,2A2,2,0,0,0,769,1542Zm0,3a1,1,0,1,1,1-1A1,1,0,0,1,769,1545Zm32-3a2,2,0,1,0,2,2A2,2,0,0,0,801,1542Zm0,3a1,1,0,1,1,1-1A1,1,0,0,1,801,1545Z" transform="translate(-765 -1524)"/>
</svg>
