<svg xmlns="http://www.w3.org/2000/svg" width="40" height="26" viewBox="0 0 40 26">
  <metadata><?xpacket begin="﻿" id="W5M0MpCehiHzreSzNTczkc9d"?>
<x:xmpmeta xmlns:x="adobe:ns:meta/" x:xmptk="Adobe XMP Core 5.6-c138 79.159824, 2016/09/14-01:09:01        ">
   <rdf:RDF xmlns:rdf="http://www.w3.org/1999/02/22-rdf-syntax-ns#">
      <rdf:Description rdf:about=""/>
   </rdf:RDF>
</x:xmpmeta>
                                                                                                    
                                                                                                    
                                                                                                    
                                                                                                    
                                                                                                    
                                                                                                    
                                                                                                    
                                                                                                    
                                                                                                    
                                                                                                    
                                                                                                    
                                                                                                    
                                                                                                    
                                                                                                    
                                                                                                    
                                                                                                    
                                                                                                    
                                                                                                    
                                                                                                    
                                                                                                    
                           
<?xpacket end="w"?></metadata>
<defs>
    <style>
      .cls-1 {
        fill: #206cff;
        fill-rule: evenodd;
      }
    </style>
  </defs>
  <path id="icon" class="cls-1" d="M233,1528H197a2,2,0,0,0-2,2v22a2,2,0,0,0,2,2h36a2,2,0,0,0,2-2v-22A2,2,0,0,0,233,1528Zm-37,6h38v4H196v-4Zm38,18a1,1,0,0,1-1,1H197a1,1,0,0,1-1-1v-13h38v13Zm-38-19v-3a1,1,0,0,1,1-1h36a1,1,0,0,1,1,1v3H196Zm10,10h-6v6h6v-6Zm-1,5h-4v-4h4v4Zm25-5H219v1h11v-1Zm-9,4h9v-1h-9v1Z" transform="translate(-195 -1528)"/>
</svg>
