<svg xmlns="http://www.w3.org/2000/svg" width="40" height="32" viewBox="0 0 40 32">
  <metadata><?xpacket begin="﻿" id="W5M0MpCehiHzreSzNTczkc9d"?>
<x:xmpmeta xmlns:x="adobe:ns:meta/" x:xmptk="Adobe XMP Core 5.6-c138 79.159824, 2016/09/14-01:09:01        ">
   <rdf:RDF xmlns:rdf="http://www.w3.org/1999/02/22-rdf-syntax-ns#">
      <rdf:Description rdf:about=""/>
   </rdf:RDF>
</x:xmpmeta>
                                                                                                    
                                                                                                    
                                                                                                    
                                                                                                    
                                                                                                    
                                                                                                    
                                                                                                    
                                                                                                    
                                                                                                    
                                                                                                    
                                                                                                    
                                                                                                    
                                                                                                    
                                                                                                    
                                                                                                    
                                                                                                    
                                                                                                    
                                                                                                    
                                                                                                    
                                                                                                    
                           
<?xpacket end="w"?></metadata>
<defs>
    <style>
      .cls-1 {
        fill: #206cff;
        fill-rule: evenodd;
      }
    </style>
  </defs>
  <path id="icon" class="cls-1" d="M506.435,1164l1.565-9H480v23h13.565l-0.86,4.95-0.093.53L492,1187h28v-23H506.435Zm11.673,1-13.429,9.1,1.582-9.1h11.847ZM492,1177v-10h12.9l-1.739,10H492Zm13.072-11H492v-10h14.811ZM491,1156v10H481v-10h10Zm-10,11h10v10H481v-10Zm17.918,11L494,1181.33l0.579-3.33h4.338Zm-5.729,8,0.574-3.3,6.938-4.7H503v8h-9.811ZM504,1186v-8l0.242-1.39,13.866,9.39H504Zm15-.6-13.87-9.4H519v9.4Zm0-10.4H505.13l13.87-9.4v9.4Z" transform="translate(-480 -1155)"/>
</svg>
