<?xml version="1.0" encoding="utf-8"?>
<!-- Generator: Adobe Illustrator 21.1.0, SVG Export Plug-In . SVG Version: 6.00 Build 0)  -->
<svg version="1.1" id="Слой_1" xmlns="http://www.w3.org/2000/svg" xmlns:xlink="http://www.w3.org/1999/xlink"  width="57" height="20" x="0px" y="0px"
	 viewBox="0 0 120 39" style="enable-background:new 0 0 120 39;" xml:space="preserve">
<style type="text/css">
	.st0{opacity:0.4;}
</style>
<g class="st0">
	<polygon points="48.3,0.7 42.3,38.3 52,38.3 58.1,0.7 	"/>
	<path d="M77.7,15.8c-3.4-1.7-5.5-2.9-5.5-4.6c0-1.6,1.8-3.3,5.6-3.3c3.2-0.1,5.5,0.7,7.2,1.5l0.9,0.4l1.3-8.1
		C85.3,0.9,82.3,0,78.5,0c-9.6,0-16.4,5.1-16.4,12.4c-0.1,5.4,4.8,8.4,8.5,10.2c3.8,1.8,5.1,3,5.1,4.7c0,2.5-3,3.7-5.8,3.7
		c-3.9,0-6-0.6-9.1-2l-1.3-0.6l-1.4,8.4c2.3,1,6.5,2,10.8,2c10.2,0,16.8-5.1,16.9-12.9C85.9,21.7,83.3,18.4,77.7,15.8z"/>
	<path d="M112.2,0.7h-7.5c-2.3,0-4.1,0.7-5.1,3.1L85.1,38.3h10.2c0,0,1.7-4.6,2.1-5.7c1.1,0,11.1,0,12.5,0c0.3,1.3,1.2,5.7,1.2,5.7
		h8.9L112.2,0.7z M100.2,24.9c0.8-2.1,3.9-10.5,3.9-10.5c0,0.1,0.8-2.2,1.3-3.6l0.7,3.3c0,0,1.8,9,2.2,10.9
		C106.7,24.9,102.1,24.9,100.2,24.9z"/>
	<path d="M34.2,0.7l-9.6,25.6l-1-5.2l0,0L20.1,3.8c-0.6-2.4-2.3-3.1-4.4-3.2H0.2L0,1.5c3.9,0.9,7.2,2.4,10.2,4.1l8.7,32.7h10.3
		L44.4,0.7H34.2z"/>
</g>
</svg>
