<?xml version="1.0" encoding="utf-8"?>
<!-- Generator: Adobe Illustrator 21.1.0, SVG Export Plug-In . SVG Version: 6.00 Build 0)  -->
<svg version="1.1" id="Слой_1" xmlns="http://www.w3.org/2000/svg" xmlns:xlink="http://www.w3.org/1999/xlink" width="50" height="40"
	 viewBox="25 -4 70 60" xml:space="preserve">
<style type="text/css">
	.st0{opacity:0.4;}
	.st1{opacity:0.3;enable-background:new    ;}
	.st2{opacity:0.2;enable-background:new    ;}
	.st3{opacity:0.4;enable-background:new    ;}
</style>
<g id="mastercard" transform="translate(1565.7 -1106.8)" class="st0">
	<path d="M-1473.1,1159.1L-1473.1,1159.1L-1473.1,1159.1c0.1,0.1,0.1,0.1,0.2,0.1l0,0l0,0
		C-1472.8,1159.1-1472.8,1159.1-1473.1,1159.1L-1473.1,1159.1z M-1473,1159L-1473,1159L-1473,1159l0.1,0.2h-0.1l0.1,0.1h-0.1
		l-0.1-0.1l0,0v0.1h-0.1v-0.5h0.3v0.2H-1473z M-1473,1159.7L-1473,1159.7c0.1,0,0.2,0,0.2-0.1s0.1-0.1,0.1-0.1v-0.1v-0.1
		c0,0,0-0.1-0.1-0.1s-0.1-0.1-0.1-0.1h-0.1h-0.1c0,0-0.1,0-0.1,0.1l-0.1,0.1v0.1v0.1c0,0,0,0.1,0.1,0.1L-1473,1159.7L-1473,1159.7
		 M-1473,1158.7c0.1,0,0.1,0,0.3,0c0.1,0,0.1,0.1,0.1,0.1l0.1,0.1c0,0.1,0,0.1,0,0.3s0,0.1,0,0.3c0,0.1-0.1,0.1-0.1,0.1l-0.1,0.1
		c-0.1,0-0.1,0-0.3,0s-0.1,0-0.3,0s-0.1-0.1-0.1-0.1l-0.1-0.1c0-0.1,0-0.1,0-0.3s0-0.1,0-0.3s0.1-0.1,0.1-0.1l0.1-0.1
		C-1473.1,1158.7-1473,1158.7-1473,1158.7 M-1525,1156.8c0-0.9,0.7-1.9,1.7-1.9s1.7,0.8,1.7,1.9s-0.7,1.9-1.7,1.9
		C-1524.5,1158.5-1525,1157.7-1525,1156.8 M-1520.5,1156.8v-2.8h-1.2v0.7c-0.4-0.5-0.9-0.8-1.7-0.8c-1.6,0-2.8,1.2-2.8,2.9
		c0,1.7,1.2,2.9,2.8,2.9c0.8,0,1.3-0.3,1.7-0.8v0.7h1.2V1156.8z M-1479.5,1156.8c0-0.9,0.7-1.9,1.7-1.9s1.7,0.8,1.7,1.9
		s-0.7,1.9-1.7,1.9C-1478.8,1158.5-1479.5,1157.7-1479.5,1156.8 M-1475,1156.8v-5h-1.2v2.9c-0.4-0.5-0.9-0.8-1.7-0.8
		c-1.6,0-2.8,1.2-2.8,2.9c0,1.7,1.2,2.9,2.8,2.9c0.8,0,1.3-0.3,1.7-0.8v0.7h1.2V1156.8z M-1505.4,1154.9c0.8,0,1.3,0.5,1.5,1.3h-2.9
		C-1506.9,1155.4-1506.4,1154.9-1505.4,1154.9 M-1505.4,1153.7c-1.6,0-2.8,1.2-2.8,2.9c0,1.7,1.2,2.9,2.9,2.9c0.8,0,1.6-0.3,2.3-0.8
		l-0.5-0.9c-0.5,0.4-1.1,0.5-1.6,0.5c-0.8,0-1.5-0.4-1.7-1.3h4.1c0-0.1,0-0.3,0-0.5C-1502.8,1154.9-1503.8,1153.7-1505.4,1153.7
		 M-1490.7,1156.8c0-0.9,0.7-1.9,1.7-1.9s1.7,0.8,1.7,1.9s-0.7,1.9-1.7,1.9C-1490.2,1158.5-1490.7,1157.7-1490.7,1156.8
		 M-1486.2,1156.8v-2.8h-1.2v0.7c-0.4-0.5-0.9-0.8-1.7-0.8c-1.6,0-2.8,1.2-2.8,2.9c0,1.7,1.2,2.9,2.8,2.9c0.8,0,1.3-0.3,1.7-0.8v0.7
		h1.2V1156.8z M-1497.6,1156.8c0,1.7,1.2,2.9,3,2.9c0.8,0,1.5-0.1,2-0.7l-0.5-0.9c-0.4,0.3-0.9,0.5-1.5,0.5c-0.9,0-1.7-0.7-1.7-1.9
		c0-1.1,0.7-1.7,1.7-1.9c0.5,0,1.1,0.1,1.5,0.5l0.5-0.9c-0.7-0.5-1.2-0.7-2-0.7C-1496.4,1153.7-1497.6,1155-1497.6,1156.8
		 M-1482,1153.7c-0.7,0-1.2,0.3-1.5,0.8v-0.7h-1.2v5.6h1.2v-3.2c0-0.9,0.4-1.5,1.2-1.5c0.3,0,0.5,0,0.8,0.1l0.4-1.2
		C-1481.3,1153.8-1481.7,1153.7-1482,1153.7 M-1514.6,1154.4c-0.5-0.4-1.3-0.5-2.3-0.5c-1.5,0-2.4,0.7-2.4,1.9c0,0.9,0.7,1.5,2,1.6
		l0.5,0.1c0.7,0.1,0.9,0.3,0.9,0.5c0,0.4-0.4,0.7-1.3,0.7c-0.8,0-1.5-0.3-1.9-0.5l-0.5,0.9c0.7,0.5,1.5,0.7,2.4,0.7
		c1.6,0,2.5-0.8,2.5-1.9c0-0.9-0.8-1.5-2-1.7l-0.5-0.1c-0.5-0.1-0.9-0.1-0.9-0.5s0.4-0.7,1.1-0.7s1.5,0.3,1.7,0.5L-1514.6,1154.4z
		 M-1498.9,1153.7c-0.7,0-1.2,0.3-1.5,0.8v-0.7h-1.2v5.6h1.2v-3.2c0-0.9,0.4-1.5,1.2-1.5c0.3,0,0.5,0,0.8,0.1l0.4-1.2
		C-1498.3,1153.8-1498.7,1153.7-1498.9,1153.7 M-1509.3,1154h-2v-1.7h-1.2v1.7h-1.2v1.1h1.2v2.5c0,1.3,0.5,2.1,2,2.1
		c0.5,0,1.2-0.1,1.5-0.4l-0.4-1.1c-0.4,0.3-0.8,0.3-1.1,0.3c-0.7,0-0.8-0.4-0.8-0.9v-2.5h2V1154L-1509.3,1154z M-1527.4,1159.5v-3.4
		c0-1.3-0.8-2.3-2.3-2.3c-0.7,0-1.5,0.3-2,1.1c-0.4-0.7-0.9-1.1-1.9-1.1c-0.7,0-1.2,0.1-1.6,0.8v-0.7h-1.2v5.6h1.2v-3
		c0-0.9,0.5-1.5,1.3-1.5s1.2,0.5,1.2,1.5v3h1.2v-3c0-0.9,0.5-1.5,1.3-1.5s1.2,0.5,1.2,1.5v3H-1527.4z"/>
</g>
<path class="st1" d="M51.9,21.1c0,6.7,3.2,12.7,8.1,16.6c4.9-3.9,8.1-9.8,8.1-16.6S64.9,8.4,60,4.5C55.1,8.4,51.9,14.3,51.9,21.1z"
	/>
<path class="st2" d="M94.1,21.1c0,11.7-9.4,21.1-21.1,21.1c-4.9,0-9.4-1.7-13-4.5c4.9-3.8,8.1-9.8,8.1-16.6S64.9,8.3,60,4.5
	C63.6,1.7,68.1,0,73,0C84.6,0,94.1,9.4,94.1,21.1"/>
<path class="st3" d="M25.9,21.1C25.9,9.4,35.4,0,47,0c4.9,0,9.4,1.7,13,4.5c-4.9,3.8-8.1,9.8-8.1,16.6s3.2,12.7,8.1,16.6
	c-3.6,2.8-8.1,4.5-13,4.5C35.4,42.1,25.9,32.7,25.9,21.1"/>
</svg>
