<?xml version="1.0" encoding="utf-8"?>
<!-- Generator: Adobe Illustrator 21.1.0, SVG Export Plug-In . SVG Version: 6.00 Build 0)  -->
<svg version="1.1" id="Слой_1" xmlns="http://www.w3.org/2000/svg" xmlns:xlink="http://www.w3.org/1999/xlink" width="50" height="40"
	 viewBox="25 -4 70 60" xml:space="preserve">
<style type="text/css">
	.st0{opacity:0.4;}
	.st1{opacity:0.2;}
	.st2{opacity:0.3;enable-background:new    ;}
</style>
<g transform="translate(-1837.7 -1267.9)">
	<g transform="matrix(3.1437 0 0 3.1437 -1661.1 -866.42)">
		<g transform="matrix(1.25 0 0 -1.25 1176 710.77)" class="st0">
			<path d="M-26.6,16.8V17h-0.1l-0.1-0.1l-0.1,0.1H-27v-0.2l0,0V17l0.1-0.1L-26.6,16.8V17V16.8L-26.6,16.8z M-27,16.8V17h0.1l0,0
				h-0.2l0,0h0.1V16.8L-27,16.8z"/>
		</g>
		<g transform="matrix(1.25 0 0 -1.25 1137.3 698.59)" class="st0">
			<path d="M-6.2,10.4c0,1.7,0.8,3.2,2,4.2c-0.9,0.7-2.1,1.1-3.3,1.1c-3,0-5.4-2.4-5.4-5.4S-10.4,5-7.5,5c1.3,0,2.4,0.4,3.3,1.1
				C-5.4,7.1-6.2,8.7-6.2,10.4"/>
		</g>
		<g transform="matrix(1.25 0 0 -1.25 1176.6 698.59)" class="st1">
			<path d="M-26.9,10.4c0-3-2.4-5.4-5.4-5.4c-1.3,0-2.4,0.4-3.3,1.1c1.2,1,2,2.5,2,4.2s-0.8,3.2-2,4.2c0.9,0.7,2.1,1.1,3.3,1.1
				C-29.3,15.7-26.9,13.3-26.9,10.4"/>
		</g>
		<path class="st2" d="M1134.6,685.6c0-2.1-1-4-2.6-5.3c-1.6,1.2-2.6,3.1-2.6,5.3c0,2.1,1,4,2.6,5.3
			C1133.6,689.7,1134.6,687.8,1134.6,685.6z"/>
		<g transform="matrix(1.25 0 0 -1.25 1159.2 722.78)" class="st0">
			<path d="M-17.8,23.1c0.1,0,0.2,0,0.2,0l-0.1-0.3c-0.1,0-0.1,0-0.2,0c-0.2,0-0.3-0.1-0.3-0.4v-0.8h-0.3V23h0.3v-0.2
				C-18.1,23.1-17.9,23.1-17.8,23.1 M-18.9,22.8h-0.5v-0.6c0-0.1,0.1-0.2,0.2-0.2s0.2,0,0.3,0.1l0.1-0.3c-0.1-0.1-0.3-0.1-0.4-0.1
				c-0.4,0-0.5,0.2-0.5,0.5v0.6H-20v0.3h0.3v0.4h0.3v-0.4h0.5V22.8z M-22.9,22.5c0,0.2,0.2,0.3,0.4,0.3c0.2,0,0.3-0.1,0.4-0.3H-22.9
				z M-21.8,22.4c0,0.4-0.3,0.7-0.7,0.7c-0.4,0-0.7-0.3-0.7-0.7c0-0.5,0.3-0.7,0.7-0.7c0.2,0,0.4,0.1,0.6,0.2l-0.2,0.2
				c-0.1-0.1-0.3-0.1-0.4-0.1c-0.2,0-0.4,0.1-0.4,0.3h1.1C-21.8,22.3-21.8,22.3-21.8,22.4 M-20.4,22.7c-0.1,0.1-0.3,0.1-0.4,0.1
				c-0.2,0-0.3-0.1-0.3-0.2s0.1-0.1,0.2-0.1h0.1c0.3,0,0.5-0.2,0.5-0.4c0-0.3-0.2-0.5-0.6-0.5c-0.2,0-0.4,0.1-0.6,0.2l0.1,0.2
				c0.1-0.1,0.3-0.1,0.5-0.1s0.3,0.1,0.3,0.2s-0.1,0.1-0.3,0.1H-21c-0.3,0-0.5,0.2-0.5,0.4c0,0.3,0.2,0.5,0.6,0.5
				c0.2,0,0.4-0.1,0.6-0.1L-20.4,22.7z M-16.6,22.8c-0.1,0-0.1,0-0.2,0s-0.1-0.1-0.1-0.1l-0.1-0.1c0-0.1,0-0.1,0-0.2s0-0.1,0-0.2
				s0.1-0.1,0.1-0.1l0.1-0.1c0.1,0,0.1,0,0.2,0s0.1,0,0.2,0c0.1,0,0.1,0.1,0.1,0.1l0.1,0.1c0,0.1,0,0.1,0,0.2s0,0.1,0,0.2
				s-0.1,0.1-0.1,0.1l-0.1,0.1C-16.5,22.8-16.6,22.8-16.6,22.8 M-16.6,23.1c0.1,0,0.2,0,0.3-0.1c0.1,0,0.2-0.1,0.2-0.2
				c0.1-0.1,0.1-0.1,0.2-0.2c0-0.1,0.1-0.2,0.1-0.3c0-0.1,0-0.2-0.1-0.3c0-0.1-0.1-0.2-0.2-0.2c-0.1-0.1-0.1-0.1-0.2-0.2
				c-0.1,0-0.2-0.1-0.3-0.1s-0.2,0-0.3,0.1c-0.1,0-0.2,0.1-0.2,0.2s-0.1,0.1-0.2,0.2c0,0.1-0.1,0.2-0.1,0.3c0,0.1,0,0.2,0.1,0.3
				c0,0.1,0.1,0.2,0.2,0.2c0.1,0,0.1,0.1,0.2,0.2C-16.8,23.1-16.7,23.1-16.6,23.1 M-24.7,22.4c0,0.3,0.2,0.5,0.4,0.5
				c0.3,0,0.4-0.2,0.4-0.5s-0.2-0.5-0.4-0.5S-24.7,22.1-24.7,22.4 M-23.5,22.4v0.7h-0.3v-0.2c-0.1,0.1-0.2,0.2-0.4,0.2
				c-0.4,0-0.7-0.3-0.7-0.7c0-0.4,0.3-0.7,0.7-0.7c0.2,0,0.4,0.1,0.4,0.2v-0.2h0.3V22.4z M-25.3,21.7v0.9c0,0.3-0.2,0.6-0.6,0.6
				c-0.2,0-0.4-0.1-0.5-0.3c-0.1,0.2-0.3,0.3-0.5,0.3s-0.3,0-0.4-0.2v0.2h-0.2v-1.4h0.3v0.8c0,0.2,0.1,0.4,0.3,0.4
				c0.2,0,0.3-0.1,0.3-0.4v-0.8h0.3v0.8c0,0.2,0.1,0.4,0.3,0.4c0.2,0,0.3-0.1,0.3-0.4v-0.8h0.4V21.7z"/>
		</g>
		<g transform="matrix(1.25 0 0 -1.25 1167.4 727.74)" class="st0">
			<path d="M-22.1,25.8L-22.1,25.8L-22.1,25.8C-22,25.7-22,25.7-22.1,25.8C-22,25.7-22,25.7-22.1,25.8C-22,25.7-22,25.7-22.1,25.8
				C-22,25.8-22,25.8-22.1,25.8L-22.1,25.8z M-22,25.8L-22,25.8C-22,25.8-22,25.7-22,25.8C-22,25.7-22,25.7-22,25.8
				C-22,25.7-22,25.7-22,25.8l0.1-0.1l0,0L-22,25.8L-22,25.8v-0.1l0,0V25.8L-22,25.8z M-22.1,25.6C-22,25.6-22,25.6-22.1,25.6
				C-22,25.6-22,25.6-22.1,25.6c0.1,0,0.1,0.1,0.1,0.1l0,0l0,0l0,0l0,0l0,0l0,0l0,0l0,0l0,0l0,0C-22.2,25.7-22.1,25.6-22.1,25.6
				L-22.1,25.6L-22.1,25.6 M-22.1,25.9C-22,25.9-22,25.8-22.1,25.9c0.1,0,0.1,0,0.1,0l0,0c0,0,0,0,0-0.1s0,0,0-0.1l0,0l0,0
				c0,0,0,0-0.1,0c0,0,0,0-0.1,0l0,0l0,0c0,0,0,0,0,0.1s0,0,0,0.1l0,0C-22.1,25.8-22.1,25.8-22.1,25.9
				C-22.1,25.8-22.1,25.9-22.1,25.9"/>
		</g>
	</g>
</g>
</svg>
