<?xml version="1.0" encoding="utf-8"?>
<!-- Generator: Adobe Illustrator 21.1.0, SVG Export Plug-In . SVG Version: 6.00 Build 0)  -->
<svg version="1.1" id="Слой_1" xmlns="http://www.w3.org/2000/svg" xmlns:xlink="http://www.w3.org/1999/xlink"  width="128" height="32" x="0px" y="0px"
	 viewBox="0 0 120 30" style="enable-background:new 0 0 120 30;" xml:space="preserve">
<style type="text/css">
	.st0{opacity:0.4;}
</style>
<g class="st0">
	<path d="M120,20.9c0,0.1-0.1,0.2-0.1,0.3c-0.2,1.1-0.8,1.7-1.9,1.9c-1.3,0.2-2.5,0.1-3.8-0.1c0-0.3,0.1-0.5,0.1-0.8
		c0.5,0,1.1,0.1,1.6,0.1c0.5,0,1.1,0,1.6-0.1c0.5-0.1,0.9-0.4,1-0.9c0.1-0.6,0.1-1.1,0.2-1.8c-0.2,0.1-0.3,0.1-0.4,0.2
		c-1.1,0.6-2.3,0.8-3.5,0.4c-0.8-0.2-1.4-0.8-1.5-1.6c-0.2-0.9-0.2-1.9-0.2-2.8c0-0.7,0.1-1.5,0.2-2.2c0.2-0.9,0.8-1.5,1.7-1.7
		c1.2-0.3,2.4-0.1,3.4,0.5c0.1,0.1,0.2,0.1,0.4,0.2c0,0,0,0,0.1,0c0-0.2,0.1-0.5,0.1-0.7c0.4,0,0.7,0,1.1,0
		C120,14.9,120,17.9,120,20.9z M118.7,16C118.7,16,118.7,16,118.7,16c0-0.8,0-1.6,0-2.4c0-0.1,0-0.3-0.1-0.3c-0.9-0.6-1.9-0.9-3-0.6
		c-0.5,0.1-0.8,0.5-1,0.9c-0.1,0.5-0.2,1.1-0.2,1.6c0,0.9,0,1.9,0.1,2.8c0.1,0.7,0.6,1.1,1.3,1.2c0.9,0.2,1.8-0.1,2.6-0.5
		c0.2-0.1,0.2-0.2,0.2-0.4C118.7,17.6,118.7,16.8,118.7,16z"/>
	<path d="M21.7,14c0.4,0.8,0.7,1.5,1.1,2.3c0.7,1.3,1.5,2.6,2.7,3.6c0.1,0.1,0.2,0.2,0.3,0.2c0.1,0,0.3-0.1,0.3-0.2
		c0-0.1,0-0.4-0.1-0.5c-0.7-0.9-1.2-2-1.6-3.1c-0.7-1.9-1-3.9-1.2-6c-0.1-0.7-0.5-1.2-1.1-1.3c-0.6-0.1-1.2,0.2-1.5,0.8
		c-0.8,1.7-1.5,3.4-2.3,5c-1,2.1-2.1,4.1-3.5,5.9c-0.2,0.3-0.5,0.6-0.8,0.8c-0.2,0.2-0.4,0.2-0.5-0.1c-0.2-0.5-0.5-1.1-0.6-1.7
		c-0.4-1.7-0.5-3.5-0.6-5.3c-0.1-2.6,0-5.2,0.2-7.9c0-0.7,0.1-1.5,0.2-2.2c0-0.7-0.4-1.3-1-1.4c-0.6-0.1-1.2,0.2-1.5,0.8
		c-2.2,4.6-4.8,8.8-7.6,13c-0.5,0.7-1,1.4-1.4,2.1c0,0-0.1,0.1-0.2,0.2c-0.2-0.7-0.3-1.4-0.4-2C0,16-0.1,14.8,0.1,13.7
		C0.3,11.3,1,9.1,2.3,7.1c2.5-3.8,5.9-6.1,10.5-6.9C13.8,0,15-0.1,16.1,0.1c3.5,0.3,6.5,1.7,9.1,4.1c2.4,2.3,3.9,5.1,4.4,8.4
		c0.7,4.7-0.6,8.9-3.8,12.4c-2.4,2.6-5.5,4.2-9,4.6c-1.1,0.1-2.2,0.2-3.2,0.1c-3.4-0.4-6.4-1.7-8.9-4.1c-0.7-0.7-1.3-1.5-2-2.3
		c-0.1-0.1-0.1-0.2,0-0.4c2.4-3.7,4.6-7.5,6.7-11.4c0,0,0-0.1,0.1-0.2c0,0.2,0,0.3,0,0.5c0,2.4,0,4.7,0.4,7.1c0.2,1.4,0.5,2.8,1.2,4
		c0.6,1.1,1.5,1.7,2.8,1.7c0.9,0,1.6-0.4,2.2-1c1-0.9,1.8-2.1,2.5-3.3c1.1-2,2.1-4,3.1-5.9C21.6,14.2,21.6,14.1,21.7,14z"/>
	<path d="M38.8,17.9c0.2-0.6,0.4-1.3,0.6-1.9c0.7-2.1,1.3-4.2,2-6.3c0.1-0.2,0.2-0.3,0.5-0.3c0.6,0,1.3,0,2,0c0,3.6,0,7.2,0,10.9
		c-0.4,0-0.8,0-1.3,0c0-0.1,0-0.3,0-0.4c0-3,0-6,0-8.9c0-0.1,0-0.2,0-0.3c0-0.1-0.1-0.1-0.1-0.2c-0.1,0.1-0.1,0.1-0.2,0.2
		c-0.1,0.4-0.3,0.8-0.4,1.2c-0.9,2.7-1.8,5.5-2.6,8.2c-0.1,0.3-0.3,0.3-0.5,0.3c-0.2,0-0.4,0-0.5-0.3c-1-3.1-2-6.2-3-9.3
		c0-0.1-0.1-0.2-0.2-0.3c0,0-0.1,0-0.1,0.1c0,3.3,0,6.5,0,9.8c-0.4,0-0.9,0-1.3,0c0-3.6,0-7.2,0-10.9c0.7,0,1.5,0,2.2,0
		c0.1,0,0.2,0.2,0.2,0.3c0.6,1.9,1.2,3.8,1.8,5.8C38.2,16.2,38.5,17,38.8,17.9C38.7,17.9,38.8,17.9,38.8,17.9z"/>
	<path d="M99.7,20.2c-0.5,0-0.9,0-1.4,0c0-0.1,0-0.2,0-0.3c0-1.7,0-3.4,0-5c0-0.4-0.1-0.9-0.2-1.3c-0.1-0.4-0.4-0.7-0.8-0.8
		c-1-0.3-2,0-2.8,0.6c-0.1,0-0.1,0.2-0.1,0.2c0,0.5,0.1,1,0.1,1.6c0,1.6,0,3.2,0,4.9c0,0.1,0,0.2,0,0.3c-0.4,0-0.8,0-1.2,0
		c0-0.1,0-0.3,0-0.4c0-1.7,0-3.4,0-5.1c0-0.3,0-0.7-0.1-1c-0.1-0.6-0.5-1-1.1-1.1c-0.9-0.2-1.8,0.1-2.6,0.6
		c-0.1,0.1-0.1,0.2-0.1,0.4c0,2.1,0,4.1,0,6.2c0,0.1,0,0.3,0,0.4c-0.5,0-0.9,0-1.4,0c0-2.8,0-5.6,0-8.4c0.3,0,0.6,0,0.9,0
		c0.1,0,0.2,0.1,0.2,0.2c0.1,0.1,0.1,0.3,0.1,0.5c1.7-0.9,3.3-1.4,4.9,0c0.3-0.1,0.6-0.3,0.9-0.5c0.9-0.5,1.9-0.5,3-0.3
		c0.8,0.2,1.3,0.7,1.5,1.6c0.1,0.5,0.1,1.1,0.1,1.7c0,1.7,0,3.3,0,5C99.7,20.1,99.7,20.1,99.7,20.2z"/>
	<path d="M71.9,23c0.1-0.3,0.1-0.6,0.1-0.8c0.6,0,1.1,0.1,1.6,0.1c0.5,0,1,0,1.5-0.1c0.6-0.1,1-0.5,1.1-1.1c0.1-0.5,0.1-1,0.2-1.6
		c-0.3,0.1-0.5,0.2-0.6,0.3c-1,0.5-2,0.6-3.1,0.4c-1.1-0.2-1.7-0.8-1.8-2.1c-0.2-1.4-0.2-2.9,0-4.3c0.2-1.2,0.9-1.8,2.2-2
		c1.1-0.2,2.2,0.1,3.1,0.7c0.1,0.1,0.2,0.1,0.3,0.2c0-0.3,0.1-0.5,0.1-0.7c0.3,0,0.7,0,1.1,0c0,0.1,0,0.1,0,0.2c0,2.7,0,5.4,0,8.1
		c0,0.5-0.1,1.1-0.3,1.6c-0.2,0.9-0.9,1.3-1.8,1.5C74.4,23.3,73.2,23.2,71.9,23z M76.4,16c0-0.8,0-1.6,0-2.3c0-0.1,0-0.3-0.1-0.3
		c-0.5-0.3-1.1-0.7-1.8-0.7c-1.3-0.1-2,0.3-2.2,1.3c-0.2,1.4-0.2,2.7,0,4.1c0.1,0.7,0.6,1.1,1.3,1.2c1,0.2,1.8-0.1,2.6-0.5
		c0.2-0.1,0.2-0.2,0.2-0.4C76.4,17.6,76.4,16.8,76.4,16z"/>
	<path d="M85.2,12.5c0.1-0.3,0.1-0.5,0.1-0.7c0.3,0,0.7,0,1.1,0c0,2.8,0,5.5,0,8.3c-0.3,0-0.7,0-1.1,0c0-0.2-0.1-0.5-0.1-0.7
		c-0.2,0.1-0.4,0.2-0.6,0.3c-0.9,0.6-2,0.7-3,0.5c-1.3-0.2-1.9-0.9-2.1-2.2c-0.2-1.4-0.2-2.9,0-4.3c0.2-1.2,0.9-1.9,2.2-2.1
		c1.1-0.2,2.1,0.1,3,0.6C84.9,12.4,85,12.5,85.2,12.5z M85,16c0-0.4,0-0.8,0-1.2c0-0.4,0-0.8,0-1.2c0-0.1-0.1-0.3-0.1-0.3
		c-0.6-0.3-1.2-0.6-1.8-0.6c-1.4,0-2.1,0.4-2.2,1.8c-0.1,0.8-0.1,1.6-0.1,2.4c0,0.5,0.1,1,0.2,1.4c0.1,0.6,0.5,1,1.1,1.1
		c1,0.3,1.9-0.1,2.8-0.6c0.1,0,0.1-0.2,0.1-0.3C85,17.6,85,16.8,85,16z"/>
	<path d="M69.5,16.2c-0.1,0.5-0.1,1.2-0.2,1.9c-0.2,1.2-0.9,1.9-2.1,2.1c-0.9,0.2-1.9,0.2-2.8,0c-1.3-0.2-2-1-2.2-2.3
		c-0.2-1.3-0.2-2.7,0-4c0.2-1.2,1-1.9,2.2-2.2c0.9-0.2,1.8-0.2,2.7,0c1.3,0.3,2.1,1.1,2.2,2.5C69.4,14.9,69.5,15.5,69.5,16.2z
		 M68.1,16.2c0-0.7-0.1-1.2-0.1-1.8c-0.1-1-0.6-1.6-1.5-1.7c-0.5-0.1-1-0.1-1.5,0c-0.8,0.1-1.3,0.5-1.4,1.3c-0.2,1.3-0.2,2.7,0,4.1
		c0.1,0.8,0.6,1.2,1.4,1.3c0.5,0.1,1,0.1,1.5,0c0.8-0.1,1.3-0.6,1.4-1.4C68.1,17.3,68.1,16.7,68.1,16.2z"/>
	<path d="M105.9,20.2c-0.4,0-0.7,0-1.1,0c-0.1,0-0.2,0-0.3,0c0-2.8,0-5.6,0-8.3c0.4,0,0.7,0,1.1,0c0,0.2,0.1,0.4,0.1,0.7
		c0.4-0.2,0.7-0.3,1-0.5c1.1-0.5,2.2-0.5,3.3-0.2c0.7,0.2,1.1,0.6,1.3,1.3c0.1,0.5,0.2,1,0.2,1.5c0,1.8,0,3.5,0,5.3
		c0,0.1,0,0.1,0,0.2c-0.4,0-0.9,0-1.3,0c0-0.1,0-0.3,0-0.4c0-1.7,0-3.3,0-5c0-0.3,0-0.7-0.1-1c-0.1-0.6-0.5-1-1.1-1.1
		c-1.1-0.3-2,0-2.9,0.6c-0.1,0.1-0.1,0.3-0.1,0.4c0,2,0,4,0,5.9C105.9,19.8,105.9,20,105.9,20.2z"/>
	<path d="M54.3,17.5c0.4,0,0.8,0,1.2,0c0.2,1-0.4,2.2-1.3,2.5c-1.3,0.5-2.7,0.5-4.1,0c-0.9-0.3-1.3-1.1-1.4-1.9
		c-0.2-1.3-0.2-2.7,0-4c0.2-1.3,1-2,2.3-2.3c1-0.2,2-0.2,3,0.1c1.1,0.4,1.8,1.5,1.6,2.6c-0.4,0-0.8,0-1.2,0c0-0.2,0-0.4-0.1-0.6
		c-0.1-0.7-0.5-1.1-1.2-1.2c-0.5-0.1-1.1-0.1-1.6,0c-0.8,0.1-1.2,0.7-1.3,1.4c-0.2,1.3-0.2,2.6,0,3.9c0.1,0.9,0.7,1.4,1.6,1.5
		c0.4,0,0.9,0,1.3,0c0.8-0.1,1.1-0.6,1.2-1.3C54.3,17.9,54.3,17.7,54.3,17.5z"/>
	<path d="M58.4,20.2c-0.5,0-0.9,0-1.4,0c0-2.8,0-5.6,0-8.4c0.3,0,0.6,0,0.9,0c0.1,0,0.2,0.1,0.2,0.2c0.1,0.2,0.1,0.4,0.1,0.6
		c0.6-0.3,1.1-0.6,1.6-0.8c0.6-0.2,1.2-0.2,1.8-0.1c0,0.3-0.1,0.6-0.1,1c-0.3,0-0.6,0-0.8,0c-0.9,0-1.6,0.4-2.2,0.9
		c-0.1,0.1-0.1,0.2-0.1,0.4c0,2,0,3.9,0,5.9C58.4,19.9,58.4,20.1,58.4,20.2z"/>
	<path d="M47.2,20.2c-0.5,0-0.9,0-1.4,0c0-2.8,0-5.6,0-8.4c0.5,0,0.9,0,1.4,0C47.2,14.6,47.2,17.4,47.2,20.2z"/>
	<path d="M101.5,20.2c0-2.8,0-5.6,0-8.3c0.4,0,0.9,0,1.3,0c0,2.8,0,5.5,0,8.3C102.4,20.2,101.9,20.2,101.5,20.2z"/>
	<path d="M47.2,10.7c-0.5,0-0.9,0-1.4,0c0-0.5,0-0.9,0-1.4c0.5,0,0.9,0,1.4,0C47.2,9.8,47.2,10.3,47.2,10.7z"/>
	<path d="M102.8,9.4c0,0.4,0,0.9,0,1.4c-0.4,0-0.9,0-1.4,0c0-0.4,0-0.9,0-1.4C101.9,9.4,102.4,9.4,102.8,9.4z"/>
</g>
</svg>
