<?xml version="1.0" encoding="utf-8"?>
<!-- Generator: Adobe Illustrator 21.1.0, SVG Export Plug-In . SVG Version: 6.00 Build 0)  -->


<svg version="1.1" id="Слой_1" xmlns="http://www.w3.org/2000/svg" xmlns:xlink="http://www.w3.org/1999/xlink"  width="85" height="17" x="0px" y="0px"
	 viewBox="0 0 120 21" style="enable-background:new 0 0 120 21;" xml:space="preserve">
<style type="text/css">
	.st0{opacity:0.4;}
</style>
<path class="st0" d="M117.8,1.5C116.3,0.5,114,0,111,0h-8l-2.9,16H89.7l0.7-3.6h6.3l0.8-4.1h-6.3l0.7-3.6h6.4L99.2,0H86l-2.8,15.2
	h-4.8L81.2,0h-6.9l-2.8,15.2h-4.7L69.6,0h-6.9l-3,16H49.3l0.7-3.6h6.3l0.8-4h-6.3l0.7-3.6H58l0.9-4.7H17.9l-2.3,12.7L11,0H3.9
	L0,20.8h6.8l2.3-13l4.5,13h24.4l3-16h3.8l-3,16h64.1l1.9-10.1l3,10.1h6.8l-3.1-8.3l0.7-0.2c1.5-0.3,2.8-1,3.7-2.1s1.3-2.5,1.3-4.2
	C120.1,4,119.4,2.6,117.8,1.5L117.8,1.5z M32.1,16H21.6l0.7-3.6h6.5l0.8-4.1h-6.4l0.6-3.6h10.4L32.1,16L32.1,16z M112.3,9.1
	c-0.7,0.5-1.7,0.7-3,0.7h-1.4l1-5.6h1c1.1,0,2,0.2,2.5,0.5c0.4,0.3,0.9,0.9,0.9,2C113.4,8,112.8,8.7,112.3,9.1L112.3,9.1z"/>
</svg>
