<?xml version="1.0" encoding="utf-8"?>
<!-- Generator: Adobe Illustrator 21.1.0, SVG Export Plug-In . SVG Version: 6.00 Build 0)  -->


<svg version="1.1" id="Слой_1" xmlns="http://www.w3.org/2000/svg" xmlns:xlink="http://www.w3.org/1999/xlink"  width="60" height="22" x="0px" y="0px"
	 viewBox="0 0 120 42" style="enable-background:new 0 0 120 42;" xml:space="preserve">
<style type="text/css">
	.st0{opacity:0.4;}
</style>
<path id="Fill-1" class="st0" d="M86.2,9.8c2.8,0,4.9-2.3,4.9-4.9c0-2.8-2.3-4.9-4.9-4.9c-2.8,0-4.9,2.3-4.9,4.9
	C81.3,7.7,83.5,9.8,86.2,9.8L86.2,9.8z M48.6,12.5c-0.2,0.5-1.8,5.1-5.7,9.7V2.3l-10.3,2v36.2h10.3V29.3c3,4.5,4.5,11.2,4.5,11.2
	h12.3C58.4,35.3,53.1,26,53.1,26c4.8-6,6.9-12.6,7.3-13.6H48.6V12.5z M75.6,12.1c-9.2,0.3-13.9,4.4-13.9,12.7v15.8h10v-13
	c0-4.9,0.6-7.1,6.4-7.3v-8.2C77.2,12.1,75.6,12.1,75.6,12.1L75.6,12.1z M15.3,16.5c-1.2-0.1-4.2-0.3-4.2-2.9c0-3.2,4.2-3.2,5.7-3.2
	c2.8,0,6.3,0.8,8.9,1.5c0,0,1.4,0.5,2.7,1h0.1V4.4h-0.2c-3.1-1-6.5-2-13.1-2C4,2.4,0,8.9,0,14.5c0,3.3,1.4,10.8,14.2,11.8
	c1.1,0.1,4,0.2,4,3c0,2.3-2.4,3.6-6.3,3.6c-4.4,0-8.6-1.1-11.2-2.1v8.9c3.9,1,8.2,1.5,13.3,1.5c10.9,0,16-6.2,16-12.4
	C30.1,21.6,24.6,17.1,15.3,16.5L15.3,16.5z M81.2,40.5h10v-28h-10V40.5z M110,4v36.5h10V2.3L110,4L110,4z M95.4,4l9.9-1.7v38.3h-9.9
	V4L95.4,4z"/>
</svg>
