<?xml version="1.0" encoding="utf-8"?>
<!-- Generator: Adobe Illustrator 21.1.0, SVG Export Plug-In . SVG Version: 6.00 Build 0)  -->


<svg version="1.1" id="Слой_1" xmlns="http://www.w3.org/2000/svg" xmlns:xlink="http://www.w3.org/1999/xlink"  width="85" height="30" x="0px" y="0px"
	 viewBox="0 0 120 42" style="enable-background:new 0 0 120 42;" xml:space="preserve">
<style type="text/css">
	.st0{opacity:0.4;}
</style>
<g class="st0">
	<path d="M24.5,11.7c0.2,0,0.3,0,0.4,0c1.3,0,2.6,0,3.8,0c0.5,0,0.9,0.1,1.3,0.3c0.8,0.4,1.1,1,0.9,1.9c-0.4,1.8-0.8,3.6-1.2,5.4
		c-0.6,2.6-1.2,5.3-1.8,7.9c-0.2,0.7-0.5,1.3-1.1,1.7C26.5,28.9,26,29,25.6,29h-0.1c-6.7,0-13.4,0-20.1,0c-0.5,0-0.9-0.1-1.4-0.4
		c-0.6-0.4-0.8-0.8-1-1.4c-0.2-1-0.5-1.9-0.6-3c-0.4-1.6-0.6-3.1-1-4.6c-0.5-1.9-0.9-4-1.3-5.9c-0.2-0.6,0-1.3,0.6-1.8
		c0.3-0.2,0.6-0.4,1.1-0.4c0.3,0,0.6-0.1,0.8-0.1c1.1,0,2.2,0,3.4,0c0.1,0,0.1,0,0.2,0c0.3,0,0.3,0,0.3-0.3c0-0.8,0-1.7,0-2.5
		c0-1.7,0.5-3.2,1.4-4.6C9.2,2,11.1,0.7,13.5,0c0.9,0,1.9-0.1,3,0.1c1.8,0.2,3.3,0.8,4.7,1.9c1.7,1.3,2.7,3.1,3.2,5.2
		c0.1,0.6,0.2,1.2,0.2,1.9c0,0.7,0,1.6,0,2.3C24.5,11.5,24.5,11.6,24.5,11.7z M15.4,11.7c1.9,0,3.7,0,5.6,0c0.4,0,0.4,0,0.4-0.4
		s0-0.8,0-1.2c0-0.6,0-1.3-0.1-1.9c-0.1-1-0.5-2-1-2.9c-1.4-1.9-3.2-2.7-5.6-2.4C13.9,3,13,3.3,12.3,3.7c-1.8,1.2-2.7,2.9-2.8,5
		c0,0.8,0,1.7,0,2.6c0,0.4,0,0.4,0.4,0.4C11.7,11.7,13.6,11.7,15.4,11.7z M15.4,15.4L15.4,15.4c-1.2,0-2.3,0-3.5,0
		c-0.4,0-0.6,0.1-0.6,0.6c0,0.4,0,0.8,0,1.2c0,0.5,0.1,0.6,0.6,0.6c0.5,0,0.9,0,1.3,0c0.5,0,0.5,0,0.5,0.5c0,1.9,0,3.9,0,5.8
		c0,0.1,0,0.3,0,0.4c0,0.3,0.1,0.4,0.4,0.4c0.7,0,1.4,0,2.1,0c0.1,0,0.2,0,0.3,0c0.2,0,0.3-0.1,0.4-0.4c0-0.1,0-0.3,0-0.4
		c0-1.9,0-3.9,0-5.9c0-0.4,0-0.4,0.4-0.4c0.6,0,1,0,1.6,0c0.1,0,0.3,0,0.4,0s0.2-0.1,0.2-0.2s0-0.2,0-0.2c0-0.5,0-0.8,0-1.3
		c0-0.4-0.1-0.6-0.6-0.6c-0.1,0-0.1,0-0.2,0C17.7,15.4,16.6,15.4,15.4,15.4z"/>
	<path d="M73.9,21.7c0,1.4,0,2.8,0,4.2c0,0.6-0.1,1.1-0.4,1.7c-0.5,1.1-1.3,1.8-2.5,1.8c-2.1,0-4.4,0-6.5,0c-0.4,0-0.7-0.1-1.1-0.2
		c-1.1-0.4-1.7-1.1-1.9-2.2c-0.1-0.4-0.2-0.8-0.2-1.3c0-2.7,0-5.3,0-8c0-0.3,0-0.6,0.2-0.7c0.2-0.4,0.4-0.6,0.7-0.6
		c1.1,0,2.2,0,3.3,0c0.2,0,0.3,0,0.5,0.1c0.5,0.2,0.7,0.6,0.7,1c0,2,0,4,0,6c0,0.2,0,0.5,0.1,0.6c0.1,0.5,0.4,0.6,0.8,0.6
		s0.8-0.2,0.9-0.6c0.1-0.2,0.1-0.4,0.1-0.6c0-1.9,0-4,0-5.9c0-0.2,0-0.5,0.1-0.6c0.1-0.3,0.3-0.5,0.6-0.6c0.1,0,0.2,0,0.4,0
		c1,0,2,0,3.1,0c0.2,0,0.3,0,0.5,0c0.5,0.1,0.7,0.4,0.7,0.8c0,0.1,0,0.3,0,0.4C73.9,18.9,73.9,20.3,73.9,21.7L73.9,21.7z"/>
	<path d="M41.9,11.7c2.1,0,4.3,0,6.5,0c0.2,0,0.5,0,0.6,0.1c0.3,0.1,0.4,0.2,0.5,0.5c0,0.1,0,0.2,0,0.3c0,0.9,0,1.8,0,2.7
		c0,0.6-0.1,0.7-0.7,0.7c-1.1,0-2.2,0-3.3,0c-0.1,0-0.2,0-0.3,0c-0.3,0-0.4,0.1-0.4,0.4c0,0.1,0,0.2,0,0.3c0,3.9,0,7.7,0,11.6
		c0,0.2,0,0.3,0,0.5c0,0.2-0.2,0.4-0.4,0.5c-0.2,0.1-0.4,0.1-0.6,0.1c-0.7,0-1.5,0-2.2,0c-0.6,0-1.3,0-1.9,0c-0.2,0-0.3,0-0.5-0.1
		C39.2,29,39,28.9,39,28.7c0-0.1,0-0.3,0-0.4c0-3.9,0-7.8,0-11.7c0-0.1,0-0.3,0-0.4c0-0.2-0.1-0.3-0.3-0.3c-0.1,0-0.3,0-0.4,0
		c-1,0-2,0-3.1,0c-0.1,0-0.3,0-0.4,0c-0.3,0-0.4-0.2-0.4-0.4c0-0.1,0-0.2,0-0.4c0-0.8,0-1.8,0-2.6v-0.1c0-0.5,0.2-0.6,0.6-0.7
		c0.2,0,0.3,0,0.5,0C37.7,11.7,39.8,11.7,41.9,11.7z"/>
	<path d="M113,22.2c0.3-0.7,0.6-1.4,0.8-2.1c0.4-0.9,0.7-1.8,1.1-2.7c0.1-0.3,0.3-0.6,0.6-0.7c0.2-0.2,0.5-0.3,0.7-0.3
		c0.9,0,1.9,0,2.9,0c0.2,0,0.4,0,0.6,0.1c0.3,0.1,0.4,0.3,0.3,0.6c0,0.1-0.1,0.2-0.1,0.3c-2.2,5.2-4.4,10.5-6.7,15.7
		c-0.1,0.3-0.3,0.6-0.5,0.7c-0.2,0.2-0.5,0.4-0.8,0.4c-0.8,0-1.7,0-2.5,0c-0.2,0-0.4,0-0.6-0.1c-0.3-0.1-0.5-0.3-0.4-0.6
		c0-0.1,0.1-0.3,0.1-0.4c0.6-1.3,1.1-2.6,1.7-3.9c0.1-0.2,0.1-0.3,0-0.5c-1.6-3.8-3.1-7.6-4.5-11.3c-0.1-0.1-0.1-0.3-0.1-0.4
		c-0.1-0.3,0.1-0.5,0.4-0.6c0.1,0,0.3-0.1,0.4-0.1c1.3,0,2.6,0,3.9,0c0.3,0,0.6,0.2,0.7,0.4c0.2,0.2,0.4,0.5,0.5,0.7
		c0.6,1.5,1,3,1.6,4.4C112.9,21.9,112.9,22,113,22.2z"/>
	<path d="M81.5,29.6c-1.9,0-3.3-0.2-4.8-0.6c-0.2,0-0.3-0.1-0.5-0.2c-0.2,0-0.3-0.1-0.3-0.3c0-0.4-0.1-0.7-0.1-1.1
		c0-0.5,0-1,0.1-1.5v-0.1c0.1-0.5,0.2-0.6,0.6-0.4c1.2,0.3,2.4,0.4,3.6,0.4c0.2,0,0.5-0.1,0.6-0.1c0.1,0,0.3-0.1,0.4-0.2
		c0.2-0.2,0.2-0.5,0-0.6s-0.3-0.2-0.5-0.3c-0.4-0.2-0.6-0.3-1-0.5c-0.5-0.2-0.9-0.5-1.4-0.6c-0.6-0.3-1-0.6-1.4-1.2
		c-0.7-1-1-2.1-0.7-3.3c0.2-0.7,0.6-1.3,1.1-1.8c0.6-0.6,1.4-0.8,2.2-1.1c0.8-0.2,1.7-0.4,2.5-0.4c0.9,0,1.9,0,2.8,0.1
		c0.4,0,0.6,0.1,1,0.2c0.3,0.1,0.4,0.2,0.4,0.5c0,0.5,0,0.8-0.1,1.2c-0.1,0.3-0.2,0.6-0.3,0.8c0,0.1-0.1,0.3-0.2,0.4
		c-0.1,0.2-0.3,0.4-0.6,0.3c-0.6-0.1-1.2-0.2-1.8-0.2c-0.4,0-0.8,0-1.2,0c-0.2,0-0.3,0-0.5,0.1c-0.3,0.2-0.4,0.5-0.1,0.6
		c0.2,0.2,0.5,0.3,0.7,0.5c0.6,0.3,1,0.5,1.6,0.7c0.6,0.4,1.2,0.7,1.7,1.2c0.9,0.9,1.3,2,1.2,3.2c0,0.4-0.1,0.7-0.2,1.1
		c-0.3,0.9-0.9,1.7-1.8,2.1c-0.6,0.4-1.3,0.6-2,0.6C82.5,29.5,81.9,29.5,81.5,29.6z"/>
	<path d="M89.6,19.9c-0.2,0-0.4,0-0.6,0c-0.1,0-0.2,0-0.4,0c-0.3,0-0.5-0.2-0.6-0.5c0-0.1-0.1-0.3-0.1-0.5c0-0.6,0-1.2,0-1.8
		c0-0.6,0.3-0.8,0.8-0.8c0.3,0,0.6,0,0.9,0c0-0.1,0-0.2,0-0.3c0-0.5,0-0.9,0-1.3s0.2-0.6,0.5-0.8c0.2-0.1,0.4-0.2,0.6-0.2
		c1-0.2,2-0.4,3.1-0.5c0.1,0,0.3,0,0.4,0c0.2,0,0.3,0.2,0.4,0.4c0,0.2,0,0.4,0,0.6c0,0.6,0,1.4,0,2c0,0.1,0,0.1,0,0.2
		c0.1,0,0.2,0,0.2,0c0.4,0,0.8,0,1.2,0s0.6,0.2,0.6,0.5c0.1,0.2,0.1,0.4,0.1,0.6c0,0.6,0,1.2,0,1.8c0,0.6-0.2,0.7-0.7,0.7
		c-0.4,0-0.7,0-1.1,0c-0.1,0-0.2,0-0.3,0c0,0.1,0,0.2,0,0.2c0,1.7,0,3.2,0,4.9c0,0.4,0.2,0.6,0.6,0.6c0.2,0,0.4,0,0.6,0
		c0.2,0,0.2,0,0.3,0.2c0.1,0.3,0.2,0.6,0.2,0.7c0.1,0.6,0.2,1.3,0.2,2c0,0.4,0,0.4-0.4,0.5c-1.1,0.3-2.3,0.5-3.4,0.3
		c-0.8-0.1-1.7-0.4-2.2-1c-0.6-0.6-0.9-1.3-0.9-2c0-0.5,0-0.9,0-1.3c0-1.7,0-3.4,0-5.1C89.6,19.9,89.6,19.9,89.6,19.9z"/>
	<path d="M98.9,20.4c0-2.7,0-5.4,0-8c0-0.1,0-0.2,0-0.3c0-0.4,0.3-0.6,0.6-0.6c0.1,0,0.2,0,0.3,0c1.1,0,2.1,0,3.2,0
		c0.2,0,0.5,0,0.6,0.1c0.4,0.1,0.5,0.2,0.6,0.6c0,0.1,0,0.2,0,0.3c0,5.3,0,10.6,0,15.8c0,0.1,0,0.3,0,0.4c0,0.4-0.2,0.6-0.6,0.6
		c-0.1,0-0.2,0-0.4,0c-1.1,0-2.3,0-3.4,0c-0.2,0-0.4,0-0.5,0c-0.2,0-0.3-0.2-0.4-0.4c0-0.1,0-0.2,0-0.4c0-1.6,0-3.2,0-4.8
		C98.9,22.6,98.9,21.5,98.9,20.4z"/>
	<path d="M50.4,23.5c0-1.4,0-2.8,0-4.2c0-0.3,0-0.6,0.1-0.9c0.1-0.7,0.6-1.3,1.3-1.6c0.5-0.2,1-0.4,1.5-0.4c0.6,0,1.2,0,1.8,0
		c1.4,0,2.8,0,4.2,0h0.1c0.5,0,0.6,0.1,0.6,0.6c0,0.8,0,1.7,0,2.5c0,0.1,0,0.1,0,0.2c0,0.3-0.2,0.5-0.5,0.5c-0.2,0-0.4,0-0.6,0
		c-0.5,0-0.8,0.1-1.3,0.1c-0.4,0-0.6,0.2-1,0.4c-0.6,0.3-0.8,0.7-0.8,1.4c0,0.2,0,0.3,0,0.5c0,1.9,0,3.8,0,5.7c0,0.2,0,0.4,0,0.6
		c-0.1,0.4-0.3,0.6-0.6,0.6c-0.1,0-0.1,0-0.2,0c-1,0-2.1,0-3.2,0c-0.2,0-0.3,0-0.5-0.1c-0.4-0.1-0.6-0.4-0.6-0.7c0-0.2,0-0.4,0-0.5
		C50.4,26.4,50.4,24.9,50.4,23.5z"/>
	<path d="M21.7,30c1.9,0,3.6,1.6,3.5,3.6c0,1.9-1.7,3.5-3.6,3.5c-1.9,0-3.5-1.6-3.5-3.5C18,31.6,19.6,30,21.7,30z"/>
	<path d="M9.4,30c1.9,0,3.5,1.6,3.5,3.6c0,1.9-1.6,3.5-3.6,3.5c-1.9,0-3.5-1.7-3.5-3.6C5.8,31.5,7.5,30,9.4,30z"/>
</g>
</svg>
