<?xml version="1.0" encoding="utf-8"?>
<!-- Generator: Adobe Illustrator 21.1.0, SVG Export Plug-In . SVG Version: 6.00 Build 0)  -->


<svg version="1.1" id="Слой_1" xmlns="http://www.w3.org/2000/svg" xmlns:xlink="http://www.w3.org/1999/xlink" width="80" height="30" x="0px" y="0px"
	 viewBox="0 0 120 43" style="enable-background:new 0 0 120 43;" xml:space="preserve">
<style type="text/css">
	.st0{opacity:0.4;}
	.st1{fill-rule:evenodd;clip-rule:evenodd;}
</style>
<g class="st0">
	<path class="st1" d="M80.8,8.6h4.6l10.1,16.1V8.6h5.1v25.9H96L86,18.3l0,16.1h-5.1V8.6z"/>
	<path class="st1" d="M61.5,0.2h1.4v8.2h15.2v5H66.5v5.5h10.1V24H66.3v5.7h11.9v5H62.9v8.2h-1.4V0.2z"/>
	<path class="st1" d="M42,8.6h17v4.8h-5.8v21.1H48V13.3h-6V8.6z"/>
	<path class="st1" d="M22.9,8.6h17v4.8H28V19h10.1v4.8H28v5.8h11.9v4.8h-17V8.6z"/>
	<path class="st1" d="M0,8.6h4.6l10.1,16.1V8.6h5.1v25.9h-4.6L5.1,18.3l0,16.1H0V8.6z"/>
	<path class="st1" d="M103,8.6h17v4.8h-5.8v21.1H109V13.3h-6V8.6z"/>
</g>
</svg>
