<?xml version="1.0" encoding="utf-8"?>
<!-- Generator: Adobe Illustrator 21.1.0, SVG Export Plug-In . SVG Version: 6.00 Build 0)  -->
<svg version="1.1" id="svg" xmlns:svg="http://www.w3.org/2000/svg"
	 xmlns="http://www.w3.org/2000/svg" xmlns:xlink="http://www.w3.org/1999/xlink" width="90" height="25" x="0px" y="0px" viewBox="0 0 140 40"
	 style="enable-background:new 0 0 140 40;" xml:space="preserve">
<style type="text/css">
	.st0{opacity:0.4;}
</style>
<g class="st0">
	<g>
		<path d="M29.2,7.1c1.7,0,3.3-1.3,3.6-3s-0.9-3-2.6-3s-3.3,1.4-3.6,3C26.3,5.7,27.5,7.1,29.2,7.1z"/>
		<path d="M140,8.8c-2.9-0.2-6.6,3.3-6.6,3.3l-1.2-3H129l-1.6,8.9c-0.1,0.6-0.4,1.2-0.9,1.5l-4.3,3.4c0,0-1.8,1.3-4.2,2.9
			c-1.1,0.5-2,0.8-2.9,0.8c-2,0-3.2-0.8-3.8-2.1c-0.1-0.2-0.2-0.5-0.2-0.7l11.1-7.5c1.6-1.1,1.6-2.7,1.3-3.4
			c-0.7-2.4-2.9-4.2-6.4-4.2c-6.6,0-11.2,5.7-11.2,13.7c0,0.5,0,1.1,0.1,1.6l-3.1,2.2c-0.6,0.4-1.5,0.7-2,0.7
			c-0.9,0-1.3-0.7-1.1-2.3l4.1-22.9h-5.2l-2.1,11.4c-0.1,0.5-0.3,0.9-0.7,1.3l-5.6,5.9c0.1-1,0.2-2,0.2-3.1c0-4.8-2.2-8.4-6-8.4
			c-3.6,0-6.3,3.1-6.3,3.1l-1.4-2.7h-3.2l-1.8,10.1c-0.1,0.4-0.3,0.9-0.6,1.2L68,24.3c-0.9,1-1.9,2.2-2.3,2.2
			c-0.9,0.1-1.2-0.2-0.9-1.8l1.3-7.3c1-5.8-0.7-8.7-5.7-8.7C57.5,8.7,54,12,54,12c-0.7-2.2-2.5-3.3-5.3-3.3c-3,0-6.2,3.5-6.2,3.5
			L41,9.1h-3.2l-1.7,9.5c-0.1,0.4-0.3,0.9-0.6,1.2l-3.7,4.4c-0.9,1-1.9,2.2-2.3,2.2c-0.9,0.1-1.2-0.2-0.9-1.8L31.4,9h-5.2l-0.8,4.6
			c-0.1,0.6-0.4,1.2-0.8,1.6L17,24.1c-2,2.1-4.4,2.4-4.9,2.4H6.8l12.1-13.7l0.6-3.7H4l-0.7,4.2h9L0.6,27L0,30.9c0,0,10.9,0,11.1,0
			c3.2,0,6.1-2.8,7.2-4l5.8-6.9L23,25.8c-0.7,3.8,0.8,5.5,3.9,5.5c1.9,0,3.2-1.3,4.5-2.6l3.5-4.1l-1.2,6.6H39l2.3-13
			c0.3-1.6,2.4-4.3,4.5-4.3c2.3,0,3.4,1.1,2.9,4.2l-2.3,13.2h5.1l2.5-14c0.1-0.9,1.8-3.5,4.1-3.5c2.4,0,3.2,1.3,2.7,4.4L59.4,26
			c-0.7,3.8,0.8,5.5,3.9,5.5c1.9,0,3.2-1.3,4.5-2.6l3-3.6l-1.1,6.1l-1.2,7.1h5.2l1.7-9.6c0.7,0.9,1.7,1.6,3,2
			c0.3,0.1,0.6,0.2,0.9,0.2c3.3,0.2,6.3-1.4,9-4.2l0,0l7.5-7.8l-1.2,6.8c-0.7,3.8,0.8,5.5,3.9,5.5c2,0,3.9-1,5.9-2.3l2.6-1.9
			c0,0.1,0.1,0.2,0.1,0.3c1.2,2.3,3.4,3.8,6.6,3.9l0,0c3.4,0,6.7-3.2,8.7-4.6c0.5-0.3,2.4-1.9,4.4-3.5l-1.4,8.1h5.2l2.3-13
			c0.3-1.6,2.4-4.3,4.5-4.3c0.8,0,1.5,0.2,2,0.5L140,8.8L140,8.8z M76,24.6l1.2-6.8c0.5-1.6,2.4-3.8,4.4-3.9c0.8,0,1.7,0,2.5,0.7
			c0.7,0.8,1.1,2.1,1.1,3.6c0,4.9-2.4,8.3-5.7,8.3C77.8,26.4,76.5,25.5,76,24.6z M111.2,18.2c0.6-2.7,2.7-5,5.2-5c1.4,0,2.4,1,2,2.2
			l-7.6,5.2C110.9,19.3,111.2,18.2,111.2,18.2z"/>
	</g>
</g>
</svg>
