<svg xmlns="http://www.w3.org/2000/svg" width="65" height="65" viewBox="0 0 65 65">
  <metadata><?xpacket begin="﻿" id="W5M0MpCehiHzreSzNTczkc9d"?>
<x:xmpmeta xmlns:x="adobe:ns:meta/" x:xmptk="Adobe XMP Core 5.6-c138 79.159824, 2016/09/14-01:09:01        ">
   <rdf:RDF xmlns:rdf="http://www.w3.org/1999/02/22-rdf-syntax-ns#">
      <rdf:Description rdf:about=""/>
   </rdf:RDF>
</x:xmpmeta>
                                                                                                    
                                                                                                    
                                                                                                    
                                                                                                    
                                                                                                    
                                                                                                    
                                                                                                    
                                                                                                    
                                                                                                    
                                                                                                    
                                                                                                    
                                                                                                    
                                                                                                    
                                                                                                    
                                                                                                    
                                                                                                    
                                                                                                    
                                                                                                    
                                                                                                    
                                                                                                    
                           
<?xpacket end="w"?></metadata>
<defs>
    <style>
      .cls-1 {
        fill: #fff;
        fill-rule: evenodd;
      }
    </style>
  </defs>
  <path id="icon" class="cls-1" d="M989.783,2209l-6.111-10.19-0.857.52,5.8,9.67H968l-4,4H951l-4-4H926.383l5.8-9.67-0.857-.52L925.217,2209H925v37h65v-37h-0.217ZM989,2245H926v-35h20.586l3.707,3.71,0.293,0.29h13.828l0.293-.29,3.707-3.71H989v35Zm-55-55h47v18h1v-19H933v19h1v-18Zm2-4h43v2h1v-3H935v3h1v-2Zm2-4h39v2h1v-3H937v3h1v-2Z" transform="translate(-925 -2181)"/>
</svg>
