<svg xmlns="http://www.w3.org/2000/svg" width="65" height="65" viewBox="0 0 65 65">
  <metadata><?xpacket begin="﻿" id="W5M0MpCehiHzreSzNTczkc9d"?>
<x:xmpmeta xmlns:x="adobe:ns:meta/" x:xmptk="Adobe XMP Core 5.6-c138 79.159824, 2016/09/14-01:09:01        ">
   <rdf:RDF xmlns:rdf="http://www.w3.org/1999/02/22-rdf-syntax-ns#">
      <rdf:Description rdf:about=""/>
   </rdf:RDF>
</x:xmpmeta>
                                                                                                    
                                                                                                    
                                                                                                    
                                                                                                    
                                                                                                    
                                                                                                    
                                                                                                    
                                                                                                    
                                                                                                    
                                                                                                    
                                                                                                    
                                                                                                    
                                                                                                    
                                                                                                    
                                                                                                    
                                                                                                    
                                                                                                    
                                                                                                    
                                                                                                    
                                                                                                    
                           
<?xpacket end="w"?></metadata>
<defs>
    <style>
      .cls-1 {
        fill: #fff;
        fill-rule: evenodd;
      }
    </style>
  </defs>
  <path id="icon" class="cls-1" d="M222.1,2234.72h0a32.466,32.466,0,0,0-.641-43.17h0a32.483,32.483,0,0,0-47.92,0h0c-0.218.23-.429,0.48-0.64,0.73h0a32.452,32.452,0,0,0,0,42.44h0c0.212,0.25.422,0.5,0.641,0.73h0a32.483,32.483,0,0,0,47.92,0h0c0.218-.23.428-0.48,0.639-0.72A0.017,0.017,0,0,0,222.1,2234.72Zm-0.9-.5a40.907,40.907,0,0,0-9.685-3.61,57.173,57.173,0,0,0,2.481-16.61h14.993A31.363,31.363,0,0,1,221.2,2234.22ZM198,2197.99a59.178,59.178,0,0,0,12.567-1.39,56.825,56.825,0,0,1,2.427,16.4H198v-15.01ZM197,2214v15.01a59.171,59.171,0,0,0-12.567,1.39,56.859,56.859,0,0,1-2.427-16.4H197Zm-14.994-1a56.859,56.859,0,0,1,2.427-16.4A59.178,59.178,0,0,0,197,2197.99V2213H182.006ZM198,2214h14.994a56.825,56.825,0,0,1-2.427,16.4A59.178,59.178,0,0,0,198,2229.01V2214Zm15.994-1a57.173,57.173,0,0,0-2.481-16.61,40.907,40.907,0,0,0,9.685-3.61,31.363,31.363,0,0,1,7.789,20.22H213.994Zm6.541-20.95a40.2,40.2,0,0,1-9.325,3.4c-2.112-6.21-5.275-10.91-9-13.1A31.471,31.471,0,0,1,220.535,2192.05Zm-10.274,3.61A59.056,59.056,0,0,1,198,2196.99v-14.96C203.083,2182.36,207.552,2187.68,210.261,2195.66ZM197,2196.99a59.056,59.056,0,0,1-12.261-1.33c2.709-7.98,7.178-13.3,12.261-13.63v14.96Zm-4.215-14.64c-3.72,2.19-6.883,6.89-9,13.1a40.214,40.214,0,0,1-9.325-3.4A31.471,31.471,0,0,1,192.785,2182.35ZM173.8,2192.78a40.907,40.907,0,0,0,9.685,3.61,57.173,57.173,0,0,0-2.481,16.61H166.013A31.363,31.363,0,0,1,173.8,2192.78ZM166.013,2214h14.993a57.173,57.173,0,0,0,2.481,16.61,40.907,40.907,0,0,0-9.685,3.61A31.363,31.363,0,0,1,166.013,2214Zm8.452,20.95a40.214,40.214,0,0,1,9.325-3.4c2.112,6.21,5.275,10.91,9,13.1A31.471,31.471,0,0,1,174.465,2234.95Zm10.274-3.61A59.056,59.056,0,0,1,197,2230.01v14.96C191.917,2244.64,187.448,2239.32,184.739,2231.34ZM198,2230.01a59.056,59.056,0,0,1,12.261,1.33c-2.709,7.98-7.178,13.3-12.261,13.63v-14.96Zm4.215,14.64c3.72-2.19,6.883-6.89,9-13.1a40.18,40.18,0,0,1,9.325,3.4A31.471,31.471,0,0,1,202.215,2244.65Z" transform="translate(-165 -2181)"/>
</svg>
