<svg xmlns="http://www.w3.org/2000/svg" width="65" height="65" viewBox="0 0 65 65">
  <metadata><?xpacket begin="﻿" id="W5M0MpCehiHzreSzNTczkc9d"?>
<x:xmpmeta xmlns:x="adobe:ns:meta/" x:xmptk="Adobe XMP Core 5.6-c138 79.159824, 2016/09/14-01:09:01        ">
   <rdf:RDF xmlns:rdf="http://www.w3.org/1999/02/22-rdf-syntax-ns#">
      <rdf:Description rdf:about=""/>
   </rdf:RDF>
</x:xmpmeta>
                                                                                                    
                                                                                                    
                                                                                                    
                                                                                                    
                                                                                                    
                                                                                                    
                                                                                                    
                                                                                                    
                                                                                                    
                                                                                                    
                                                                                                    
                                                                                                    
                                                                                                    
                                                                                                    
                                                                                                    
                                                                                                    
                                                                                                    
                                                                                                    
                                                                                                    
                                                                                                    
                           
<?xpacket end="w"?></metadata>
<defs>
    <style>
      .cls-1 {
        fill: #fff;
        fill-rule: evenodd;
      }
    </style>
  </defs>
  <path id="icon" class="cls-1" d="M553,2222.95v22.04h-7v-22.04h7m1-1h-9v24.04h9v-24.04h0Zm-4.363-8.04-0.274-.96,13.894-3.98,14.106-12.05,13.895-3.97L605.175,2181l0.65,0.76-14.187,12.12-13.895,3.98-14.106,12.05ZM567,2218.94v26.05h-7v-26.05h7m1-1h-9v28.05h9v-28.05h0Zm13-11.02v38.07h-7v-38.07h7m1-1h-9v40.07h9v-40.07h0Zm13-3.01v42.08h-7v-42.08h7m1-1h-9v44.08h9v-44.08h0Zm13-11.02v54.1h-7v-54.1h7m1-1h-9v56.1h9v-56.1h0Z" transform="translate(-545 -2181)"/>
</svg>
